HighlandCode-Italic.ufo
<glyph name="dollar" format="1">
  <advance width="1228"/>
  <unicode hex="0024"/>
  <outline>
    <contour>
      <point x="387" y="1120"/>
      <point x="253" y="956"/>
      <point x="253" y="792" type="curve" smooth="yes"/>
      <point x="253" y="682"/>
      <point x="315" y="616"/>
      <point x="408" y="584" type="curve" smooth="yes"/>
      <point x="533" y="541"/>
      <point x="676" y="544"/>
      <point x="794" y="511" type="curve" smooth="yes"/>
      <point x="858" y="493"/>
      <point x="897" y="459"/>
      <point x="897" y="401" type="curve" smooth="yes"/>
      <point x="897" y="322"/>
      <point x="828" y="219"/>
      <point x="616" y="219" type="curve" smooth="yes"/>
      <point x="481" y="219"/>
      <point x="355" y="255"/>
      <point x="258" y="317" type="curve" smooth="yes"/>
      <point x="230" y="335"/>
      <point x="197" y="333"/>
      <point x="167" y="279" type="curve" smooth="yes"/>
      <point x="140" y="230"/>
      <point x="151" y="199"/>
      <point x="185" y="178" type="curve" smooth="yes"/>
      <point x="297" y="107"/>
      <point x="441" y="73"/>
      <point x="600" y="73" type="curve" smooth="yes"/>
      <point x="955" y="73"/>
      <point x="1057" y="276"/>
      <point x="1057" y="419" type="curve" smooth="yes"/>
      <point x="1057" y="536"/>
      <point x="992" y="606"/>
      <point x="899" y="639" type="curve" smooth="yes"/>
      <point x="777" y="682"/>
      <point x="637" y="681"/>
      <point x="519" y="709" type="curve" smooth="yes"/>
      <point x="453" y="725"/>
      <point x="413" y="753"/>
      <point x="413" y="808" type="curve" smooth="yes"/>
      <point x="413" y="890"/>
      <point x="493" y="974"/>
      <point x="664" y="974" type="curve" smooth="yes"/>
      <point x="789" y="974"/>
      <point x="910" y="943"/>
      <point x="1006" y="889" type="curve" smooth="yes"/>
      <point x="1035" y="873"/>
      <point x="1068" y="877"/>
      <point x="1095" y="929" type="curve" smooth="yes"/>
      <point x="1121" y="980"/>
      <point x="1110" y="1010"/>
      <point x="1075" y="1029" type="curve" smooth="yes"/>
      <point x="963" y="1090"/>
      <point x="824" y="1120"/>
      <point x="676" y="1120" type="curve" smooth="yes"/>
    </contour>
    <contour>
      <point x="494" y="149" type="line"/>
      <point x="440" y="-160" type="line" smooth="yes"/>
      <point x="432" y="-206"/>
      <point x="449" y="-225"/>
      <point x="498" y="-225" type="curve" smooth="yes"/>
      <point x="547" y="-225"/>
      <point x="572" y="-206"/>
      <point x="580" y="-160" type="curve" smooth="yes"/>
      <point x="634" y="149" type="line"/>
    </contour>
    <contour>
      <point x="738" y="1412"/>
      <point x="714" y="1393"/>
      <point x="706" y="1347" type="curve" smooth="yes"/>
      <point x="653" y="1051" type="line"/>
      <point x="793" y="1051" type="line"/>
      <point x="846" y="1347" type="line" smooth="yes"/>
      <point x="854" y="1393"/>
      <point x="836" y="1412"/>
      <point x="787" y="1412" type="curve" smooth="yes"/>
    </contour>
  </outline>
</glyph>
<glyph name="asterisk" format="1">
  <advance width="1228"/>
  <unicode hex="002A"/>
  <outline>
    <contour>
      <point x="801" y="1127"/>
      <point x="828" y="1092"/>
      <point x="812" y="1037" type="curve" smooth="yes"/>
      <point x="672" y="539" type="line"/>
      <point x="606" y="539" type="line"/>
      <point x="637" y="1037" type="line" smooth="yes"/>
      <point x="640" y="1092"/>
      <point x="677" y="1127"/>
      <point x="739" y="1127" type="curve" smooth="yes"/>
    </contour>
    <contour>
      <point x="1182" y="695"/>
      <point x="1153" y="655"/>
      <point x="1097" y="644" type="curve" smooth="yes"/>
      <point x="592" y="547" type="line"/>
      <point x="583" y="610" type="line"/>
      <point x="1064" y="812" type="line" smooth="yes"/>
      <point x="1118" y="835"/>
      <point x="1165" y="813"/>
      <point x="1173" y="754" type="curve" smooth="yes"/>
    </contour>
    <contour>
      <point x="831" y="132"/>
      <point x="793" y="155"/>
      <point x="773" y="202" type="curve" smooth="yes"/>
      <point x="592" y="628" type="line"/>
      <point x="653" y="668" type="line"/>
      <point x="919" y="283" type="line" smooth="yes"/>
      <point x="948" y="241"/>
      <point x="946" y="201"/>
      <point x="889" y="167" type="curve" smooth="yes"/>
    </contour>
    <contour>
      <point x="226" y="217"/>
      <point x="225" y="268"/>
      <point x="269" y="308" type="curve" smooth="yes"/>
      <point x="669" y="672" type="line"/>
      <point x="721" y="630" type="line"/>
      <point x="401" y="202" type="line" smooth="yes"/>
      <point x="366" y="155"/>
      <point x="314" y="144"/>
      <point x="270" y="180" type="curve" smooth="yes"/>
    </contour>
    <contour>
      <point x="208" y="831"/>
      <point x="248" y="843"/>
      <point x="294" y="821" type="curve" smooth="yes"/>
      <point x="721" y="617" type="line"/>
      <point x="688" y="554" type="line"/>
      <point x="221" y="661" type="line" smooth="yes"/>
      <point x="169" y="673"/>
      <point x="153" y="710"/>
      <point x="180" y="770" type="curve" smooth="yes"/>
    </contour>
  </outline>
</glyph>
<glyph name="plus" format="1">
  <advance width="1228"/>
  <unicode hex="002B"/>
  <outline>
    <contour>
      <point x="670" y="1026"/>
      <point x="649" y="1008"/>
      <point x="641" y="963" type="curve" smooth="yes"/>
      <point x="587" y="654" type="line"/>
      <point x="278" y="654" type="line" smooth="yes"/>
      <point x="233" y="654"/>
      <point x="211" y="634"/>
      <point x="202" y="582" type="curve" smooth="yes"/>
      <point x="193" y="530"/>
      <point x="207" y="510"/>
      <point x="252" y="510" type="curve" smooth="yes"/>
      <point x="561" y="510" type="line"/>
      <point x="507" y="201" type="line" smooth="yes"/>
      <point x="499" y="156"/>
      <point x="518" y="138"/>
      <point x="570" y="138" type="curve" smooth="yes"/>
      <point x="622" y="138"/>
      <point x="643" y="156"/>
      <point x="651" y="201" type="curve" smooth="yes"/>
      <point x="705" y="510" type="line"/>
      <point x="1014" y="510" type="line" smooth="yes"/>
      <point x="1059" y="510"/>
      <point x="1081" y="530"/>
      <point x="1090" y="582" type="curve" smooth="yes"/>
      <point x="1099" y="634"/>
      <point x="1085" y="654"/>
      <point x="1040" y="654" type="curve" smooth="yes"/>
      <point x="731" y="654" type="line"/>
      <point x="785" y="963" type="line" smooth="yes"/>
      <point x="793" y="1008"/>
      <point x="774" y="1026"/>
      <point x="722" y="1026" type="curve" smooth="yes"/>
    </contour>
  </outline>
</glyph>
<glyph name="one" format="1">
  <advance width="1228"/>
  <unicode hex="0031"/>
  <outline>
    <contour>
      <point x="392" y="1075" type="line" smooth="yes"/>
      <point x="358" y="1064"/>
      <point x="342" y="1037"/>
      <point x="352" y="989" type="curve" smooth="yes"/>
      <point x="363" y="938"/>
      <point x="388" y="924"/>
      <point x="419" y="935" type="curve" smooth="yes"/>
      <point x="679" y="1024" type="line"/>
      <point x="523.414" y="144" type="line"/>
      <point x="275" y="144" type="line" smooth="yes"/>
      <point x="230" y="144"/>
      <point x="208" y="124"/>
      <point x="199" y="72" type="curve" smooth="yes"/>
      <point x="190" y="20"/>
      <point x="205" y="0"/>
      <point x="250" y="0" type="curve" smooth="yes"/>
      <point x="924" y="0" type="line" smooth="yes"/>
      <point x="969" y="0"/>
      <point x="990" y="20"/>
      <point x="999" y="72" type="curve" smooth="yes"/>
      <point x="1008" y="124"/>
      <point x="994" y="144"/>
      <point x="949" y="144" type="curve" smooth="yes"/>
      <point x="673.418" y="144" type="line"/>
      <point x="851" y="1146" type="line" smooth="yes"/>
      <point x="860" y="1197"/>
      <point x="827" y="1223"/>
      <point x="783" y="1208" type="curve" smooth="yes"/>
    </contour>
  </outline>
</glyph>
<glyph name="four" format="1">
  <advance width="1228"/>
  <unicode hex="0034"/>
  <outline>
    <contour>
      <point x="840" y="1209"/>
      <point x="807" y="1189"/>
      <point x="773" y="1148" type="curve" smooth="yes"/>
      <point x="161" y="425" type="line" smooth="yes"/>
      <point x="153" y="415"/>
      <point x="145" y="397"/>
      <point x="141" y="376" type="curve" smooth="yes"/>
      <point x="132" y="326"/>
      <point x="148" y="302"/>
      <point x="193" y="302" type="curve" smooth="yes"/>
      <point x="671" y="302" type="line"/>
      <point x="627" y="55" type="line" smooth="yes"/>
      <point x="619" y="9"/>
      <point x="634" y="-10"/>
      <point x="690" y="-10" type="curve" smooth="yes"/>
      <point x="692" y="-10" type="line" smooth="yes"/>
      <point x="745" y="-10"/>
      <point x="769" y="9"/>
      <point x="777" y="55" type="curve" smooth="yes"/>
      <point x="821" y="302" type="line"/>
      <point x="983" y="302" type="line" smooth="yes"/>
      <point x="1028" y="302"/>
      <point x="1049" y="322"/>
      <point x="1058" y="374" type="curve" smooth="yes"/>
      <point x="1068" y="426"/>
      <point x="1053" y="446"/>
      <point x="1008" y="446" type="curve" smooth="yes"/>
      <point x="846" y="446" type="line"/>
      <point x="967" y="1131" type="line" smooth="yes"/>
      <point x="975" y="1178"/>
      <point x="954" y="1209"/>
      <point x="892" y="1209" type="curve" smooth="yes"/>
    </contour>
    <contour>
      <point x="696" y="446" type="line"/>
      <point x="357" y="446" type="line"/>
      <point x="798" y="981" type="line"/>
    </contour>
  </outline>
</glyph>
<glyph name="seven" format="1">
  <advance width="1228"/>
  <unicode hex="0037"/>
  <outline>
    <contour>
      <point x="401" y="1187" type="line" smooth="yes"/>
      <point x="356" y="1187"/>
      <point x="334" y="1167"/>
      <point x="325" y="1115" type="curve" smooth="yes"/>
      <point x="316" y="1063"/>
      <point x="330" y="1043"/>
      <point x="375" y="1043" type="curve" smooth="yes"/>
      <point x="958" y="1043" type="line"/>
      <point x="380" y="56" type="line" smooth="yes"/>
      <point x="351" y="7"/>
      <point x="394" y="-22"/>
      <point x="442" y="-22" type="curve" smooth="yes"/>
      <point x="476" y="-22"/>
      <point x="512" y="-8"/>
      <point x="531" y="24" type="curve" smooth="yes"/>
      <point x="1143" y="1079" type="line" smooth="yes"/>
      <point x="1147" y="1087"/>
      <point x="1153" y="1102"/>
      <point x="1156" y="1119" type="curve" smooth="yes"/>
      <point x="1165" y="1169"/>
      <point x="1150" y="1187"/>
      <point x="1105" y="1187" type="curve" smooth="yes"/>
    </contour>
  </outline>
</glyph>
<glyph name="less" format="1">
  <advance width="1228"/>
  <unicode hex="003C"/>
  <outline>
    <contour>
      <point x="386" y="576" type="line"/>
      <point x="1108" y="894" type="line" smooth="yes"/>
      <point x="1154" y="914"/>
      <point x="1164" y="947"/>
      <point x="1149" y="993" type="curve" smooth="yes"/>
      <point x="1135" y="1037"/>
      <point x="1103" y="1057"/>
      <point x="1059" y="1037" type="curve" smooth="yes"/>
      <point x="214" y="656" type="line" smooth="yes"/>
      <point x="180" y="640"/>
      <point x="163" y="618"/>
      <point x="157" y="583" type="curve" smooth="yes"/>
      <point x="151" y="548"/>
      <point x="161" y="526"/>
      <point x="190" y="510" type="curve" smooth="yes"/>
      <point x="900" y="129" type="line" smooth="yes"/>
      <point x="937" y="109"/>
      <point x="970" y="122"/>
      <point x="1000" y="166" type="curve" smooth="yes"/>
      <point x="1031" y="212"/>
      <point x="1026" y="241"/>
      <point x="988" y="261" type="curve" smooth="yes"/>
    </contour>
  </outline>
</glyph>
<glyph name="question" format="1">
  <advance width="1228"/>
  <unicode hex="003F"/>
  <outline>
    <contour>
      <point x="632" y="1209"/>
      <point x="518" y="1181"/>
      <point x="407" y="1123" type="curve" smooth="yes"/>
      <point x="379" y="1108"/>
      <point x="364" y="1082"/>
      <point x="385" y="1031" type="curve" smooth="yes"/>
      <point x="404" y="985"/>
      <point x="429" y="981"/>
      <point x="463" y="996" type="curve" smooth="yes"/>
      <point x="552" y="1035"/>
      <point x="645" y="1061"/>
      <point x="736" y="1061" type="curve" smooth="yes"/>
      <point x="846" y="1061"/>
      <point x="902" y="1009"/>
      <point x="902" y="930" type="curve" smooth="yes"/>
      <point x="902" y="807"/>
      <point x="817" y="749"/>
      <point x="644" y="684" type="curve" smooth="yes"/>
      <point x="570" y="656" type="line" smooth="yes"/>
      <point x="546" y="647"/>
      <point x="534" y="631"/>
      <point x="531" y="605" type="curve" smooth="yes"/>
      <point x="507" y="410" type="line" smooth="yes"/>
      <point x="503" y="379"/>
      <point x="525" y="359"/>
      <point x="567" y="359" type="curve" smooth="yes"/>
      <point x="609" y="359"/>
      <point x="637" y="379"/>
      <point x="645" y="410" type="curve" smooth="yes"/>
      <point x="679" y="546" type="line"/>
      <point x="922" y="636"/>
      <point x="1061" y="743"/>
      <point x="1061" y="937" type="curve" smooth="yes"/>
      <point x="1061" y="1100"/>
      <point x="950" y="1209"/>
      <point x="751" y="1209" type="curve" smooth="yes"/>
    </contour>
    <contour>
      <point x="474" y="254"/>
      <point x="395" y="184"/>
      <point x="395" y="97" type="curve" smooth="yes"/>
      <point x="395" y="31"/>
      <point x="444" y="-22"/>
      <point x="514" y="-22" type="curve" smooth="yes"/>
      <point x="595" y="-22"/>
      <point x="674" y="48"/>
      <point x="674" y="134" type="curve" smooth="yes"/>
      <point x="674" y="201"/>
      <point x="625" y="254"/>
      <point x="555" y="254" type="curve" smooth="yes"/>
    </contour>
  </outline>
</glyph>
<glyph name="C" format="1">
  <advance width="1228"/>
  <unicode hex="0043"/>
  <outline>
    <contour>
      <point x="415" y="1209"/>
      <point x="170" y="840"/>
      <point x="170" y="453" type="curve" smooth="yes"/>
      <point x="170" y="166"/>
      <point x="333" y="-22"/>
      <point x="603" y="-22" type="curve" smooth="yes"/>
      <point x="742" y="-22"/>
      <point x="875" y="14"/>
      <point x="1001" y="86" type="curve" smooth="yes"/>
      <point x="1041" y="109"/>
      <point x="1046" y="141"/>
      <point x="1023" y="187" type="curve" smooth="yes"/>
      <point x="999" y="234"/>
      <point x="965" y="242"/>
      <point x="934" y="222" type="curve" smooth="yes"/>
      <point x="840" y="161"/>
      <point x="726" y="126"/>
      <point x="614" y="126" type="curve" smooth="yes"/>
      <point x="432" y="126"/>
      <point x="324" y="251"/>
      <point x="324" y="461" type="curve" smooth="yes"/>
      <point x="324" y="755"/>
      <point x="500" y="1061"/>
      <point x="789" y="1061" type="curve" smooth="yes"/>
      <point x="887" y="1061"/>
      <point x="991" y="1034"/>
      <point x="1072" y="980" type="curve" smooth="yes"/>
      <point x="1102" y="960"/>
      <point x="1137" y="968"/>
      <point x="1161" y="1015" type="curve" smooth="yes"/>
      <point x="1184" y="1061"/>
      <point x="1179" y="1093"/>
      <point x="1139" y="1116" type="curve" smooth="yes"/>
      <point x="1031" y="1179"/>
      <point x="918" y="1209"/>
      <point x="800" y="1209" type="curve" smooth="yes"/>
    </contour>
  </outline>
</glyph>
<glyph name="D" format="1">
  <advance width="1228"/>
  <unicode hex="0044"/>
  <outline>
    <contour>
      <point x="375" y="1187" type="line" smooth="yes"/>
      <point x="330" y="1187"/>
      <point x="311" y="1169"/>
      <point x="302" y="1119" type="curve" smooth="yes"/>
      <point x="116" y="68" type="line" smooth="yes"/>
      <point x="107" y="18"/>
      <point x="125" y="0"/>
      <point x="170" y="0" type="curve" smooth="yes"/>
      <point x="522" y="0" type="line" smooth="yes"/>
      <point x="731" y="0"/>
      <point x="878" y="90"/>
      <point x="976" y="213" type="curve" smooth="yes"/>
      <point x="1098" y="366"/>
      <point x="1146" y="571"/>
      <point x="1146" y="724" type="curve" smooth="yes"/>
      <point x="1146" y="1011"/>
      <point x="974" y="1187"/>
      <point x="701" y="1187" type="curve" smooth="yes"/>
    </contour>
    <contour>
      <point x="869" y="1043"/>
      <point x="993" y="936"/>
      <point x="993" y="719" type="curve" smooth="yes"/>
      <point x="993" y="592"/>
      <point x="956" y="432"/>
      <point x="864" y="313" type="curve" smooth="yes"/>
      <point x="788" y="214"/>
      <point x="673" y="144"/>
      <point x="510" y="144" type="curve" smooth="yes"/>
      <point x="280" y="144" type="line"/>
      <point x="438" y="1043" type="line"/>
      <point x="668" y="1043" type="line" smooth="yes"/>
    </contour>
  </outline>
</glyph>
<glyph name="F" format="1">
  <advance width="1228"/>
  <unicode hex="0046"/>
  <outline>
    <contour>
      <point x="445" y="1187" type="line" smooth="yes"/>
      <point x="400" y="1187"/>
      <point x="381" y="1169"/>
      <point x="372" y="1119" type="curve" smooth="yes"/>
      <point x="184" y="55" type="line" smooth="yes"/>
      <point x="176" y="9"/>
      <point x="191" y="-10"/>
      <point x="247" y="-10" type="curve" smooth="yes"/>
      <point x="249" y="-10" type="line" smooth="yes"/>
      <point x="302" y="-10"/>
      <point x="326" y="9"/>
      <point x="334" y="55" type="curve" smooth="yes"/>
      <point x="508" y="1043" type="line"/>
      <point x="1090" y="1043" type="line" smooth="yes"/>
      <point x="1135" y="1043"/>
      <point x="1157" y="1063"/>
      <point x="1166" y="1115" type="curve" smooth="yes"/>
      <point x="1175" y="1167"/>
      <point x="1161" y="1187"/>
      <point x="1116" y="1187" type="curve" smooth="yes"/>
    </contour>
    <contour>
      <point x="392" y="644" type="line"/>
      <point x="367" y="500" type="line"/>
      <point x="880" y="500" type="line" smooth="yes"/>
      <point x="925" y="500"/>
      <point x="946" y="520"/>
      <point x="955" y="572" type="curve" smooth="yes"/>
      <point x="965" y="624"/>
      <point x="950" y="644"/>
      <point x="905" y="644" type="curve" smooth="yes"/>
    </contour>
  </outline>
</glyph>
<glyph name="H" format="1">
  <advance width="1228"/>
  <unicode hex="0048"/>
  <outline>
    <contour>
      <point x="1117" y="1197" type="line" smooth="yes"/>
      <point x="1064" y="1197"/>
      <point x="1040" y="1178"/>
      <point x="1032" y="1132" type="curve" smooth="yes"/>
      <point x="953" y="684" type="line"/>
      <point x="375" y="684" type="line"/>
      <point x="454" y="1132" type="line" smooth="yes"/>
      <point x="462" y="1178"/>
      <point x="447" y="1197"/>
      <point x="391" y="1197" type="curve" smooth="yes"/>
      <point x="389" y="1197" type="line" smooth="yes"/>
      <point x="336" y="1197"/>
      <point x="312" y="1178"/>
      <point x="304" y="1132" type="curve" smooth="yes"/>
      <point x="114" y="55" type="line" smooth="yes"/>
      <point x="106" y="9"/>
      <point x="121" y="-10"/>
      <point x="177" y="-10" type="curve" smooth="yes"/>
      <point x="179" y="-10" type="line" smooth="yes"/>
      <point x="232" y="-10"/>
      <point x="256" y="9"/>
      <point x="264" y="55" type="curve" smooth="yes"/>
      <point x="350" y="540" type="line"/>
      <point x="928" y="540" type="line"/>
      <point x="842" y="55" type="line" smooth="yes"/>
      <point x="834" y="9"/>
      <point x="849" y="-10"/>
      <point x="905" y="-10" type="curve" smooth="yes"/>
      <point x="907" y="-10" type="line" smooth="yes"/>
      <point x="960" y="-10"/>
      <point x="984" y="9"/>
      <point x="992" y="55" type="curve" smooth="yes"/>
      <point x="1182" y="1132" type="line" smooth="yes"/>
      <point x="1190" y="1178"/>
      <point x="1175" y="1197"/>
      <point x="1119" y="1197" type="curve" smooth="yes"/>
    </contour>
  </outline>
</glyph>
<glyph name="I" format="1">
  <advance width="1228"/>
  <unicode hex="0049"/>
  <outline>
    <contour>
      <point x="412" y="1187" type="line" smooth="yes"/>
      <point x="367" y="1187"/>
      <point x="345" y="1167"/>
      <point x="336" y="1115" type="curve" smooth="yes"/>
      <point x="327" y="1063"/>
      <point x="341" y="1043"/>
      <point x="386" y="1043" type="curve" smooth="yes"/>
      <point x="652" y="1043" type="line"/>
      <point x="494" y="144" type="line"/>
      <point x="228" y="144" type="line" smooth="yes"/>
      <point x="183" y="144"/>
      <point x="161" y="124"/>
      <point x="152" y="72" type="curve" smooth="yes"/>
      <point x="143" y="20"/>
      <point x="158" y="0"/>
      <point x="203" y="0" type="curve" smooth="yes"/>
      <point x="905" y="0" type="line" smooth="yes"/>
      <point x="950" y="0"/>
      <point x="971" y="20"/>
      <point x="980" y="72" type="curve" smooth="yes"/>
      <point x="989" y="124"/>
      <point x="975" y="144"/>
      <point x="930" y="144" type="curve" smooth="yes"/>
      <point x="644" y="144" type="line"/>
      <point x="802" y="1043" type="line"/>
      <point x="1048" y="1043" type="line" smooth="yes"/>
      <point x="1093" y="1043"/>
      <point x="1115" y="1063"/>
      <point x="1124" y="1115" type="curve" smooth="yes"/>
      <point x="1133" y="1167"/>
      <point x="1119" y="1187"/>
      <point x="1074" y="1187" type="curve" smooth="yes"/>
    </contour>
  </outline>
</glyph>
<glyph name="J" format="1">
  <advance width="1228"/>
  <unicode hex="004A"/>
  <outline>
    <contour>
      <point x="582" y="1187" type="line" smooth="yes"/>
      <point x="537" y="1187"/>
      <point x="515" y="1167"/>
      <point x="506" y="1115" type="curve" smooth="yes"/>
      <point x="497" y="1063"/>
      <point x="511" y="1043"/>
      <point x="556" y="1043" type="curve" smooth="yes"/>
      <point x="917" y="1043" type="line"/>
      <point x="798" y="363" type="line" smooth="yes"/>
      <point x="771" y="210"/>
      <point x="678" y="126"/>
      <point x="524" y="126" type="curve" smooth="yes"/>
      <point x="420" y="126"/>
      <point x="325" y="161"/>
      <point x="253" y="222" type="curve" smooth="yes"/>
      <point x="230" y="242"/>
      <point x="200" y="248"/>
      <point x="165" y="195" type="curve" smooth="yes"/>
      <point x="133" y="146"/>
      <point x="139" y="118"/>
      <point x="170" y="92" type="curve" smooth="yes"/>
      <point x="257" y="17"/>
      <point x="385" y="-22"/>
      <point x="517" y="-22" type="curve" smooth="yes"/>
      <point x="753" y="-22"/>
      <point x="902" y="104"/>
      <point x="942" y="333" type="curve" smooth="yes"/>
      <point x="1080" y="1115" type="line" smooth="yes"/>
      <point x="1089" y="1167"/>
      <point x="1075" y="1187"/>
      <point x="1030" y="1187" type="curve" smooth="yes"/>
    </contour>
  </outline>
</glyph>
<glyph name="K" format="1">
  <advance width="1228"/>
  <unicode hex="004B"/>
  <outline>
    <contour>
      <point x="387" y="584" type="line"/>
      <point x="347" y="354" type="line"/>
      <point x="1175" y="1094" type="line" smooth="yes"/>
      <point x="1213" y="1127"/>
      <point x="1208" y="1157"/>
      <point x="1167" y="1187" type="curve" smooth="yes"/>
      <point x="1128" y="1216"/>
      <point x="1093" y="1216"/>
      <point x="1066" y="1191" type="curve" smooth="yes"/>
    </contour>
    <contour>
      <point x="429" y="1197" type="line" smooth="yes"/>
      <point x="376" y="1197"/>
      <point x="352" y="1178"/>
      <point x="344" y="1132" type="curve" smooth="yes"/>
      <point x="154" y="55" type="line" smooth="yes"/>
      <point x="146" y="9"/>
      <point x="161" y="-10"/>
      <point x="217" y="-10" type="curve" smooth="yes"/>
      <point x="219" y="-10" type="line" smooth="yes"/>
      <point x="272" y="-10"/>
      <point x="296" y="9"/>
      <point x="304" y="55" type="curve" smooth="yes"/>
      <point x="494" y="1132" type="line" smooth="yes"/>
      <point x="502" y="1178"/>
      <point x="487" y="1197"/>
      <point x="431" y="1197" type="curve" smooth="yes"/>
    </contour>
    <contour>
      <point x="564" y="569" type="line"/>
      <point x="894" y="6" type="line" smooth="yes"/>
      <point x="912" y="-24"/>
      <point x="947" y="-23"/>
      <point x="987" y="0" type="curve" smooth="yes"/>
      <point x="1035" y="28"/>
      <point x="1045" y="55"/>
      <point x="1024" y="92" type="curve" smooth="yes"/>
      <point x="682" y="675" type="line"/>
    </contour>
  </outline>
</glyph>
<glyph name="L" format="1">
  <advance width="1228"/>
  <unicode hex="004C"/>
  <outline>
    <contour>
      <point x="459" y="1197" type="line" smooth="yes"/>
      <point x="406" y="1197"/>
      <point x="382" y="1178"/>
      <point x="374" y="1132" type="curve" smooth="yes"/>
      <point x="186" y="68" type="line" smooth="yes"/>
      <point x="177" y="18"/>
      <point x="195" y="0"/>
      <point x="240" y="0" type="curve" smooth="yes"/>
      <point x="907" y="0" type="line" smooth="yes"/>
      <point x="952" y="0"/>
      <point x="973" y="20"/>
      <point x="982" y="72" type="curve" smooth="yes"/>
      <point x="991" y="124"/>
      <point x="977" y="144"/>
      <point x="932" y="144" type="curve" smooth="yes"/>
      <point x="350" y="144" type="line"/>
      <point x="524" y="1132" type="line" smooth="yes"/>
      <point x="532" y="1178"/>
      <point x="517" y="1197"/>
      <point x="461" y="1197" type="curve" smooth="yes"/>
    </contour>
  </outline>
</glyph>
<glyph name="N" format="1">
  <advance width="1228"/>
  <unicode hex="004E"/>
  <outline>
    <contour>
      <point x="1117" y="1197" type="line" smooth="yes"/>
      <point x="1064" y="1197"/>
      <point x="1040" y="1178"/>
      <point x="1032" y="1132" type="curve" smooth="yes"/>
      <point x="874" y="234" type="line"/>
      <point x="900" y="237" type="line"/>
      <point x="475" y="1169" type="line" smooth="yes"/>
      <point x="467" y="1187"/>
      <point x="447" y="1197"/>
      <point x="418" y="1197" type="curve" smooth="yes"/>
      <point x="391" y="1197" type="line" smooth="yes"/>
      <point x="335" y="1197"/>
      <point x="312" y="1178"/>
      <point x="304" y="1132" type="curve" smooth="yes"/>
      <point x="114" y="55" type="line" smooth="yes"/>
      <point x="106" y="9"/>
      <point x="121" y="-10"/>
      <point x="177" y="-10" type="curve" smooth="yes"/>
      <point x="179" y="-10" type="line" smooth="yes"/>
      <point x="232" y="-10"/>
      <point x="256" y="9"/>
      <point x="264" y="55" type="curve" smooth="yes"/>
      <point x="427" y="976" type="line"/>
      <point x="400" y="972" type="line"/>
      <point x="829" y="33" type="line" smooth="yes"/>
      <point x="845" y="-1"/>
      <point x="866" y="-22"/>
      <point x="904" y="-22" type="curve" smooth="yes"/>
      <point x="956" y="-22"/>
      <point x="983" y="2"/>
      <point x="989" y="37" type="curve" smooth="yes"/>
      <point x="1182" y="1132" type="line" smooth="yes"/>
      <point x="1190" y="1178"/>
      <point x="1175" y="1197"/>
      <point x="1119" y="1197" type="curve" smooth="yes"/>
    </contour>
  </outline>
</glyph>
<glyph name="Q" format="1">
  <advance width="1228"/>
  <unicode hex="0051"/>
  <outline>
    <contour>
      <point x="571" y="378"/>
      <point x="562" y="353"/>
      <point x="581" y="311" type="curve" smooth="yes"/>
      <point x="676" y="104" type="line"/>
      <point x="702" y="47" type="line"/>
      <point x="782" y="-128" type="line" smooth="yes"/>
      <point x="801" y="-169"/>
      <point x="826" y="-179"/>
      <point x="877" y="-156" type="curve" smooth="yes"/>
      <point x="929" y="-133"/>
      <point x="937" y="-108"/>
      <point x="918" y="-66" type="curve" smooth="yes"/>
      <point x="717" y="373" type="line" smooth="yes"/>
      <point x="698" y="415"/>
      <point x="673" y="426"/>
      <point x="622" y="402" type="curve" smooth="yes"/>
    </contour>
    <component base="O"/>
  </outline>
</glyph>
<glyph name="R" format="1">
  <advance width="1228"/>
  <unicode hex="0052"/>
  <outline>
    <contour>
      <point x="425" y="1187" type="line" smooth="yes"/>
      <point x="380" y="1187"/>
      <point x="361" y="1169"/>
      <point x="352" y="1119" type="curve" smooth="yes"/>
      <point x="164" y="55" type="line" smooth="yes"/>
      <point x="156" y="9"/>
      <point x="171" y="-10"/>
      <point x="227" y="-10" type="curve" smooth="yes"/>
      <point x="229" y="-10" type="line" smooth="yes"/>
      <point x="282" y="-10"/>
      <point x="306" y="9"/>
      <point x="314" y="55" type="curve" smooth="yes"/>
      <point x="388" y="473" type="line"/>
      <point x="687" y="473" type="line"/>
      <point x="968" y="520"/>
      <point x="1104" y="672"/>
      <point x="1104" y="888" type="curve" smooth="yes"/>
      <point x="1104" y="1065"/>
      <point x="971" y="1187"/>
      <point x="730" y="1187" type="curve" smooth="yes"/>
    </contour>
    <contour>
      <point x="613" y="487" type="line"/>
      <point x="838" y="14" type="line" smooth="yes"/>
      <point x="854" y="-19"/>
      <point x="877" y="-23"/>
      <point x="929" y="0" type="curve" smooth="yes"/>
      <point x="981" y="23"/>
      <point x="987" y="47"/>
      <point x="968" y="86" type="curve" smooth="yes"/>
      <point x="768" y="502" type="line"/>
    </contour>
    <contour>
      <point x="864" y="1043"/>
      <point x="950" y="982"/>
      <point x="950" y="872" type="curve" smooth="yes"/>
      <point x="950" y="715"/>
      <point x="839" y="617"/>
      <point x="621" y="617" type="curve" smooth="yes"/>
      <point x="413" y="617" type="line"/>
      <point x="488" y="1043" type="line"/>
      <point x="707" y="1043" type="line" smooth="yes"/>
    </contour>
  </outline>
</glyph>
<glyph name="T" format="1">
  <advance width="1228"/>
  <unicode hex="0054"/>
  <outline>
    <contour>
      <point x="314" y="1187" type="line" smooth="yes"/>
      <point x="269" y="1187"/>
      <point x="247" y="1167"/>
      <point x="238" y="1115" type="curve" smooth="yes"/>
      <point x="229" y="1063"/>
      <point x="243" y="1043"/>
      <point x="288" y="1043" type="curve" smooth="yes"/>
      <point x="652" y="1043" type="line"/>
      <point x="478" y="55" type="line" smooth="yes"/>
      <point x="470" y="9"/>
      <point x="485" y="-10"/>
      <point x="541" y="-10" type="curve" smooth="yes"/>
      <point x="543" y="-10" type="line" smooth="yes"/>
      <point x="596" y="-10"/>
      <point x="620" y="9"/>
      <point x="628" y="55" type="curve" smooth="yes"/>
      <point x="802" y="1043" type="line"/>
      <point x="1146" y="1043" type="line" smooth="yes"/>
      <point x="1191" y="1043"/>
      <point x="1213" y="1063"/>
      <point x="1222" y="1115" type="curve" smooth="yes"/>
      <point x="1231" y="1167"/>
      <point x="1217" y="1187"/>
      <point x="1172" y="1187" type="curve" smooth="yes"/>
    </contour>
  </outline>
</glyph>
<glyph name="U" format="1">
  <advance width="1228"/>
  <unicode hex="0055"/>
  <outline>
    <contour>
      <point x="1117" y="1197" type="line" smooth="yes"/>
      <point x="1064" y="1197"/>
      <point x="1040" y="1178"/>
      <point x="1032" y="1132" type="curve" smooth="yes"/>
      <point x="909" y="433" type="line" smooth="yes"/>
      <point x="870" y="210"/>
      <point x="758" y="126"/>
      <point x="567" y="126" type="curve" smooth="yes"/>
      <point x="407" y="126"/>
      <point x="321" y="187"/>
      <point x="321" y="339" type="curve" smooth="yes"/>
      <point x="321" y="367"/>
      <point x="325" y="399"/>
      <point x="331" y="435" type="curve" smooth="yes"/>
      <point x="454" y="1132" type="line" smooth="yes"/>
      <point x="462" y="1178"/>
      <point x="447" y="1197"/>
      <point x="391" y="1197" type="curve" smooth="yes"/>
      <point x="389" y="1197" type="line" smooth="yes"/>
      <point x="336" y="1197"/>
      <point x="312" y="1178"/>
      <point x="304" y="1132" type="curve" smooth="yes"/>
      <point x="179" y="425" type="line" smooth="yes"/>
      <point x="172" y="386"/>
      <point x="168" y="349"/>
      <point x="168" y="316" type="curve" smooth="yes"/>
      <point x="168" y="90"/>
      <point x="318" y="-22"/>
      <point x="555" y="-22" type="curve" smooth="yes"/>
      <point x="828" y="-22"/>
      <point x="1000" y="105"/>
      <point x="1053" y="404" type="curve" smooth="yes"/>
      <point x="1182" y="1132" type="line" smooth="yes"/>
      <point x="1190" y="1178"/>
      <point x="1175" y="1197"/>
      <point x="1119" y="1197" type="curve" smooth="yes"/>
    </contour>
  </outline>
</glyph>
<glyph name="V" format="1">
  <advance width="1228"/>
  <unicode hex="0056"/>
  <outline>
    <contour>
      <point x="229" y="1188"/>
      <point x="217" y="1168"/>
      <point x="226" y="1124" type="curve" smooth="yes"/>
      <point x="442" y="43" type="line" smooth="yes"/>
      <point x="451" y="-4"/>
      <point x="481" y="-22"/>
      <point x="538" y="-22" type="curve" smooth="yes"/>
      <point x="595" y="-22"/>
      <point x="630" y="-4"/>
      <point x="656" y="43" type="curve" smooth="yes"/>
      <point x="1238" y="1096" type="line" smooth="yes"/>
      <point x="1262" y="1140"/>
      <point x="1255" y="1164"/>
      <point x="1206" y="1187" type="curve" smooth="yes"/>
      <point x="1158" y="1210"/>
      <point x="1126" y="1203"/>
      <point x="1102" y="1159" type="curve" smooth="yes"/>
      <point x="567" y="182" type="line"/>
      <point x="377" y="1146" type="line" smooth="yes"/>
      <point x="368" y="1190"/>
      <point x="349" y="1202"/>
      <point x="289" y="1195" type="curve" smooth="yes"/>
    </contour>
  </outline>
</glyph>
<glyph name="X" format="1">
  <advance width="1228"/>
  <unicode hex="0058"/>
  <outline>
    <contour>
      <point x="1115" y="1215"/>
      <point x="1078" y="1218"/>
      <point x="1045" y="1178" type="curve" smooth="yes"/>
      <point x="616" y="657" type="line"/>
      <point x="571" y="623" type="line"/>
      <point x="116" y="97" type="line" smooth="yes"/>
      <point x="82" y="57"/>
      <point x="86" y="26"/>
      <point x="127" y="0" type="curve" smooth="yes"/>
      <point x="170" y="-28"/>
      <point x="207" y="-31"/>
      <point x="240" y="9" type="curve" smooth="yes"/>
      <point x="663" y="516" type="line"/>
      <point x="711" y="552" type="line"/>
      <point x="1169" y="1090" type="line" smooth="yes"/>
      <point x="1203" y="1130"/>
      <point x="1199" y="1161"/>
      <point x="1158" y="1187" type="curve" smooth="yes"/>
    </contour>
    <contour>
      <point x="309" y="1163"/>
      <point x="294" y="1142"/>
      <point x="315" y="1102" type="curve" smooth="yes"/>
      <point x="590" y="568" type="line"/>
      <point x="617" y="538" type="line"/>
      <point x="877" y="17" type="line" smooth="yes"/>
      <point x="897" y="-23"/>
      <point x="920" y="-26"/>
      <point x="973" y="0" type="curve" smooth="yes"/>
      <point x="1022" y="24"/>
      <point x="1037" y="45"/>
      <point x="1016" y="85" type="curve" smooth="yes"/>
      <point x="731" y="629" type="line"/>
      <point x="707" y="656" type="line"/>
      <point x="454" y="1170" type="line" smooth="yes"/>
      <point x="434" y="1210"/>
      <point x="411" y="1213"/>
      <point x="358" y="1187" type="curve" smooth="yes"/>
    </contour>
  </outline>
</glyph>
<glyph name="Y" format="1">
  <advance width="1228"/>
  <unicode hex="0059"/>
  <outline>
    <contour>
      <point x="1143" y="1213"/>
      <point x="1110" y="1205"/>
      <point x="1083" y="1172" type="curve" smooth="yes"/>
      <point x="620" y="607" type="line"/>
      <point x="668" y="601" type="line"/>
      <point x="404" y="1165" type="line" smooth="yes"/>
      <point x="389" y="1198"/>
      <point x="368" y="1209"/>
      <point x="314" y="1187" type="curve" smooth="yes"/>
      <point x="259" y="1165"/>
      <point x="252" y="1141"/>
      <point x="271" y="1101" type="curve" smooth="yes"/>
      <point x="576" y="457" type="line"/>
      <point x="680" y="457" type="line"/>
      <point x="1206" y="1090" type="line" smooth="yes"/>
      <point x="1239" y="1130"/>
      <point x="1234" y="1159"/>
      <point x="1187" y="1187" type="curve" smooth="yes"/>
    </contour>
    <contour>
      <point x="559" y="515" type="line"/>
      <point x="478" y="55" type="line" smooth="yes"/>
      <point x="470" y="9"/>
      <point x="485" y="-10"/>
      <point x="541" y="-10" type="curve" smooth="yes"/>
      <point x="543" y="-10" type="line" smooth="yes"/>
      <point x="596" y="-10"/>
      <point x="620" y="9"/>
      <point x="628" y="55" type="curve" smooth="yes"/>
      <point x="709" y="515" type="line"/>
    </contour>
  </outline>
</glyph>
<glyph name="bracketright" format="1">
  <advance width="1228"/>
  <unicode hex="005D"/>
  <outline>
    <contour>
      <point x="582" y="1312" type="line" smooth="yes"/>
      <point x="537" y="1312"/>
      <point x="515" y="1292"/>
      <point x="506" y="1240" type="curve" smooth="yes"/>
      <point x="497" y="1188"/>
      <point x="511" y="1168"/>
      <point x="556" y="1168" type="curve" smooth="yes"/>
      <point x="883" y="1168" type="line"/>
      <point x="634" y="-249" type="line"/>
      <point x="307" y="-249" type="line" smooth="yes"/>
      <point x="262" y="-249"/>
      <point x="240" y="-269"/>
      <point x="231" y="-321" type="curve" smooth="yes"/>
      <point x="222" y="-373"/>
      <point x="236" y="-393"/>
      <point x="281" y="-393" type="curve" smooth="yes"/>
      <point x="695" y="-393" type="line" smooth="yes"/>
      <point x="740" y="-393"/>
      <point x="761" y="-375"/>
      <point x="770" y="-325" type="curve" smooth="yes"/>
      <point x="1047" y="1244" type="line" smooth="yes"/>
      <point x="1056" y="1294"/>
      <point x="1041" y="1312"/>
      <point x="996" y="1312" type="curve" smooth="yes"/>
    </contour>
  </outline>
</glyph>
<glyph name="a" format="1">
  <advance width="1228"/>
  <unicode hex="0061"/>
  <outline>
    <contour>
      <point x="302" y="946"/>
      <point x="143" y="625"/>
      <point x="143" y="366" type="curve" smooth="yes"/>
      <point x="143" y="127"/>
      <point x="290" y="-22"/>
      <point x="505" y="-22" type="curve" smooth="yes"/>
      <point x="633" y="-22"/>
      <point x="749" y="34"/>
      <point x="850" y="143" type="curve"/>
      <point x="835" y="55" type="line" smooth="yes"/>
      <point x="827" y="9"/>
      <point x="842" y="-10"/>
      <point x="895" y="-10" type="curve" smooth="yes"/>
      <point x="897" y="-10" type="line" smooth="yes"/>
      <point x="950" y="-10"/>
      <point x="967" y="9"/>
      <point x="975" y="55" type="curve" smooth="yes"/>
      <point x="1119" y="869" type="line" smooth="yes"/>
      <point x="1127" y="915"/>
      <point x="1112" y="934"/>
      <point x="1059" y="934" type="curve" smooth="yes"/>
      <point x="1057" y="934" type="line" smooth="yes"/>
      <point x="1004" y="934"/>
      <point x="987" y="915"/>
      <point x="979" y="869" type="curve" smooth="yes"/>
      <point x="960" y="766" type="line"/>
      <point x="897" y="873"/>
      <point x="792" y="946"/>
      <point x="655" y="946" type="curve" smooth="yes"/>
    </contour>
    <contour>
      <point x="803" y="798"/>
      <point x="904" y="705"/>
      <point x="904" y="541" type="curve" smooth="yes"/>
      <point x="904" y="335"/>
      <point x="768" y="126"/>
      <point x="531" y="126" type="curve" smooth="yes"/>
      <point x="378" y="126"/>
      <point x="296" y="226"/>
      <point x="296" y="375" type="curve" smooth="yes"/>
      <point x="296" y="581"/>
      <point x="424" y="798"/>
      <point x="649" y="798" type="curve" smooth="yes"/>
    </contour>
  </outline>
</glyph>
<glyph name="b" format="1">
  <advance width="1228"/>
  <unicode hex="0062"/>
  <outline>
    <contour>
      <point x="428" y="1322" type="line" smooth="yes"/>
      <point x="375" y="1322"/>
      <point x="351" y="1303"/>
      <point x="343" y="1257" type="curve" smooth="yes"/>
      <point x="131" y="55" type="line" smooth="yes"/>
      <point x="123" y="9"/>
      <point x="138" y="-10"/>
      <point x="191" y="-10" type="curve" smooth="yes"/>
      <point x="193" y="-10" type="line" smooth="yes"/>
      <point x="246" y="-10"/>
      <point x="263" y="9"/>
      <point x="271" y="55" type="curve" smooth="yes"/>
      <point x="290" y="158" type="line"/>
      <point x="354" y="44"/>
      <point x="458" y="-22"/>
      <point x="595" y="-22" type="curve" smooth="yes"/>
      <point x="948" y="-22"/>
      <point x="1107" y="299"/>
      <point x="1107" y="558" type="curve" smooth="yes"/>
      <point x="1107" y="797"/>
      <point x="960" y="946"/>
      <point x="745" y="946" type="curve" smooth="yes"/>
      <point x="617" y="946"/>
      <point x="505" y="893"/>
      <point x="413" y="802" type="curve"/>
      <point x="493" y="1257" type="line" smooth="yes"/>
      <point x="501" y="1303"/>
      <point x="486" y="1322"/>
      <point x="430" y="1322" type="curve" smooth="yes"/>
    </contour>
    <contour>
      <point x="872" y="798"/>
      <point x="954" y="698"/>
      <point x="954" y="549" type="curve" smooth="yes"/>
      <point x="954" y="343"/>
      <point x="826" y="126"/>
      <point x="601" y="126" type="curve" smooth="yes"/>
      <point x="447" y="126"/>
      <point x="346" y="219"/>
      <point x="346" y="383" type="curve" smooth="yes"/>
      <point x="346" y="589"/>
      <point x="482" y="798"/>
      <point x="719" y="798" type="curve" smooth="yes"/>
    </contour>
  </outline>
</glyph>
<glyph name="c" format="1">
  <advance width="1228"/>
  <unicode hex="0063"/>
  <outline>
    <contour>
      <point x="379" y="946"/>
      <point x="154" y="673"/>
      <point x="154" y="380" type="curve" smooth="yes"/>
      <point x="154" y="150"/>
      <point x="308" y="-22"/>
      <point x="565" y="-22" type="curve" smooth="yes"/>
      <point x="711" y="-22"/>
      <point x="870" y="18"/>
      <point x="983" y="81" type="curve" smooth="yes"/>
      <point x="1026" y="105"/>
      <point x="1034" y="139"/>
      <point x="1012" y="183" type="curve" smooth="yes"/>
      <point x="988" y="231"/>
      <point x="954" y="236"/>
      <point x="920" y="216" type="curve" smooth="yes"/>
      <point x="822" y="159"/>
      <point x="698" y="126"/>
      <point x="581" y="126" type="curve" smooth="yes"/>
      <point x="411" y="126"/>
      <point x="309" y="234"/>
      <point x="309" y="391" type="curve" smooth="yes"/>
      <point x="309" y="607"/>
      <point x="480" y="798"/>
      <point x="709" y="798" type="curve" smooth="yes"/>
      <point x="813" y="798"/>
      <point x="921" y="765"/>
      <point x="1008" y="702" type="curve" smooth="yes"/>
      <point x="1038" y="680"/>
      <point x="1075" y="683"/>
      <point x="1101" y="729" type="curve" smooth="yes"/>
      <point x="1126" y="773"/>
      <point x="1115" y="807"/>
      <point x="1076" y="835" type="curve" smooth="yes"/>
      <point x="975" y="907"/>
      <point x="845" y="946"/>
      <point x="720" y="946" type="curve" smooth="yes"/>
    </contour>
  </outline>
</glyph>
<glyph name="d" format="1">
  <advance width="1228"/>
  <unicode hex="0064"/>
  <outline>
    <contour>
      <point x="1118" y="1322" type="line" smooth="yes"/>
      <point x="1065" y="1322"/>
      <point x="1041" y="1303"/>
      <point x="1033" y="1257" type="curve" smooth="yes"/>
      <point x="941" y="733" type="line"/>
      <point x="963" y="750" type="line"/>
      <point x="903" y="873"/>
      <point x="795" y="946"/>
      <point x="651" y="946" type="curve" smooth="yes"/>
      <point x="298" y="946"/>
      <point x="139" y="625"/>
      <point x="139" y="366" type="curve" smooth="yes"/>
      <point x="139" y="127"/>
      <point x="286" y="-22"/>
      <point x="501" y="-22" type="curve" smooth="yes"/>
      <point x="649" y="-22"/>
      <point x="764" y="41"/>
      <point x="860" y="158" type="curve"/>
      <point x="860" y="58"/>
      <point x="918" y="0"/>
      <point x="1012" y="0" type="curve" smooth="yes"/>
      <point x="1043" y="0" type="line" smooth="yes"/>
      <point x="1088" y="0"/>
      <point x="1109" y="20"/>
      <point x="1119" y="72" type="curve" smooth="yes"/>
      <point x="1128" y="124"/>
      <point x="1113" y="144"/>
      <point x="1068" y="144" type="curve" smooth="yes"/>
      <point x="1043" y="144" type="line" smooth="yes"/>
      <point x="1006" y="144"/>
      <point x="992" y="168"/>
      <point x="999" y="209" type="curve" smooth="yes"/>
      <point x="1183" y="1257" type="line" smooth="yes"/>
      <point x="1191" y="1304"/>
      <point x="1176" y="1322"/>
      <point x="1120" y="1322" type="curve" smooth="yes"/>
    </contour>
    <contour>
      <point x="799" y="798"/>
      <point x="900" y="705"/>
      <point x="900" y="541" type="curve" smooth="yes"/>
      <point x="900" y="339"/>
      <point x="746" y="126"/>
      <point x="527" y="126" type="curve" smooth="yes"/>
      <point x="374" y="126"/>
      <point x="292" y="226"/>
      <point x="292" y="375" type="curve" smooth="yes"/>
      <point x="292" y="581"/>
      <point x="420" y="798"/>
      <point x="645" y="798" type="curve" smooth="yes"/>
    </contour>
  </outline>
</glyph>
<glyph name="g" format="1">
  <advance width="1228"/>
  <unicode hex="0067"/>
  <outline>
    <contour>
      <point x="338" y="946"/>
      <point x="149" y="685"/>
      <point x="149" y="400" type="curve" smooth="yes"/>
      <point x="149" y="172"/>
      <point x="297" y="28"/>
      <point x="513" y="28" type="curve" smooth="yes"/>
      <point x="642" y="28"/>
      <point x="748" y="73"/>
      <point x="845" y="168" type="curve"/>
      <point x="813" y="-17" type="line" smooth="yes"/>
      <point x="788" y="-164"/>
      <point x="680" y="-262"/>
      <point x="496" y="-262" type="curve" smooth="yes"/>
      <point x="387" y="-262"/>
      <point x="266" y="-240"/>
      <point x="167" y="-196" type="curve" smooth="yes"/>
      <point x="135" y="-182"/>
      <point x="105" y="-194"/>
      <point x="85" y="-246" type="curve" smooth="yes"/>
      <point x="65" y="-297"/>
      <point x="78" y="-326"/>
      <point x="112" y="-340" type="curve" smooth="yes"/>
      <point x="222" y="-386"/>
      <point x="349" y="-410"/>
      <point x="480" y="-410" type="curve" smooth="yes"/>
      <point x="748" y="-410"/>
      <point x="916" y="-279"/>
      <point x="958" y="-40" type="curve" smooth="yes"/>
      <point x="1119" y="869" type="line" smooth="yes"/>
      <point x="1127" y="915"/>
      <point x="1112" y="934"/>
      <point x="1059" y="934" type="curve" smooth="yes"/>
      <point x="1057" y="934" type="line" smooth="yes"/>
      <point x="1004" y="934"/>
      <point x="987" y="915"/>
      <point x="979" y="869" type="curve" smooth="yes"/>
      <point x="960" y="766" type="line"/>
      <point x="900" y="877"/>
      <point x="801" y="946"/>
      <point x="665" y="946" type="curve" smooth="yes"/>
    </contour>
    <contour>
      <point x="804" y="798"/>
      <point x="908" y="710"/>
      <point x="908" y="556" type="curve" smooth="yes"/>
      <point x="908" y="383"/>
      <point x="789" y="176"/>
      <point x="540" y="176" type="curve" smooth="yes"/>
      <point x="385" y="176"/>
      <point x="302" y="271"/>
      <point x="302" y="412" type="curve" smooth="yes"/>
      <point x="302" y="602"/>
      <point x="425" y="798"/>
      <point x="649" y="798" type="curve" smooth="yes"/>
    </contour>
  </outline>
</glyph>
<glyph name="k" format="1">
  <advance width="1228"/>
  <unicode hex="006B"/>
  <outline>
    <contour>
      <point x="468" y="1322" type="line" smooth="yes"/>
      <point x="415" y="1322"/>
      <point x="391" y="1303"/>
      <point x="383" y="1257" type="curve" smooth="yes"/>
      <point x="171" y="55" type="line" smooth="yes"/>
      <point x="163" y="9"/>
      <point x="178" y="-10"/>
      <point x="234" y="-10" type="curve" smooth="yes"/>
      <point x="236" y="-10" type="line" smooth="yes"/>
      <point x="289" y="-10"/>
      <point x="313" y="9"/>
      <point x="321" y="55" type="curve" smooth="yes"/>
      <point x="533" y="1257" type="line" smooth="yes"/>
      <point x="541" y="1303"/>
      <point x="526" y="1322"/>
      <point x="470" y="1322" type="curve" smooth="yes"/>
    </contour>
    <contour>
      <point x="1055" y="951"/>
      <point x="1020" y="946"/>
      <point x="991" y="924" type="curve" smooth="yes"/>
      <point x="333" y="416" type="line"/>
      <point x="344" y="248" type="line"/>
      <point x="1111" y="833" type="line" smooth="yes"/>
      <point x="1151" y="864"/>
      <point x="1140" y="895"/>
      <point x="1096" y="924" type="curve" smooth="yes"/>
    </contour>
    <contour>
      <point x="555" y="453" type="line"/>
      <point x="878" y="11" type="line" smooth="yes"/>
      <point x="898" y="-16"/>
      <point x="924" y="-24"/>
      <point x="976" y="5" type="curve" smooth="yes"/>
      <point x="1025" y="32"/>
      <point x="1034" y="57"/>
      <point x="1009" y="91" type="curve" smooth="yes"/>
      <point x="685" y="529" type="line"/>
    </contour>
  </outline>
</glyph>
<glyph name="m" format="1">
  <advance width="1228"/>
  <unicode hex="006D"/>
  <outline>
    <contour>
      <point x="899" y="946"/>
      <point x="802" y="889"/>
      <point x="726" y="765" type="curve"/>
      <point x="720" y="884"/>
      <point x="655" y="946"/>
      <point x="568" y="946" type="curve" smooth="yes"/>
      <point x="486" y="946"/>
      <point x="390" y="886"/>
      <point x="314" y="757" type="curve"/>
      <point x="334" y="869" type="line" smooth="yes"/>
      <point x="342" y="915"/>
      <point x="329" y="934"/>
      <point x="279" y="934" type="curve" smooth="yes"/>
      <point x="277" y="934" type="line" smooth="yes"/>
      <point x="227" y="934"/>
      <point x="212" y="915"/>
      <point x="204" y="869" type="curve" smooth="yes"/>
      <point x="60" y="55" type="line" smooth="yes"/>
      <point x="52" y="9"/>
      <point x="67" y="-10"/>
      <point x="123" y="-10" type="curve" smooth="yes"/>
      <point x="125" y="-10" type="line" smooth="yes"/>
      <point x="178" y="-10"/>
      <point x="202" y="9"/>
      <point x="210" y="55" type="curve" smooth="yes"/>
      <point x="277" y="437" type="line" smooth="yes"/>
      <point x="312" y="639"/>
      <point x="420" y="798"/>
      <point x="515" y="798" type="curve" smooth="yes"/>
      <point x="568" y="798"/>
      <point x="591" y="768"/>
      <point x="591" y="712" type="curve" smooth="yes"/>
      <point x="591" y="696"/>
      <point x="589" y="679"/>
      <point x="586" y="660" type="curve" smooth="yes"/>
      <point x="479" y="55" type="line" smooth="yes"/>
      <point x="471" y="9"/>
      <point x="486" y="-10"/>
      <point x="542" y="-10" type="curve" smooth="yes"/>
      <point x="544" y="-10" type="line" smooth="yes"/>
      <point x="597" y="-10"/>
      <point x="621" y="9"/>
      <point x="629" y="55" type="curve" smooth="yes"/>
      <point x="696" y="437" type="line" smooth="yes"/>
      <point x="731" y="639"/>
      <point x="839" y="798"/>
      <point x="934" y="798" type="curve" smooth="yes"/>
      <point x="987" y="798"/>
      <point x="1010" y="768"/>
      <point x="1010" y="712" type="curve" smooth="yes"/>
      <point x="1010" y="697"/>
      <point x="1008" y="679"/>
      <point x="1005" y="660" type="curve" smooth="yes"/>
      <point x="898" y="55" type="line" smooth="yes"/>
      <point x="890" y="9"/>
      <point x="905" y="-10"/>
      <point x="961" y="-10" type="curve" smooth="yes"/>
      <point x="963" y="-10" type="line" smooth="yes"/>
      <point x="1016" y="-10"/>
      <point x="1040" y="9"/>
      <point x="1048" y="55" type="curve" smooth="yes"/>
      <point x="1156" y="668" type="line" smooth="yes"/>
      <point x="1161" y="694"/>
      <point x="1163" y="718"/>
      <point x="1163" y="740" type="curve" smooth="yes"/>
      <point x="1163" y="873"/>
      <point x="1084" y="946"/>
      <point x="985" y="946" type="curve" smooth="yes"/>
    </contour>
  </outline>
</glyph>
<glyph name="q" format="1">
  <advance width="1228"/>
  <unicode hex="0071"/>
  <outline>
    <contour>
      <point x="302" y="946"/>
      <point x="143" y="625"/>
      <point x="143" y="366" type="curve" smooth="yes"/>
      <point x="143" y="127"/>
      <point x="290" y="-22"/>
      <point x="505" y="-22" type="curve" smooth="yes"/>
      <point x="633" y="-22"/>
      <point x="745" y="31"/>
      <point x="837" y="122" type="curve"/>
      <point x="757" y="-333" type="line" smooth="yes"/>
      <point x="749" y="-379"/>
      <point x="764" y="-398"/>
      <point x="820" y="-398" type="curve" smooth="yes"/>
      <point x="822" y="-398" type="line" smooth="yes"/>
      <point x="875" y="-398"/>
      <point x="899" y="-379"/>
      <point x="907" y="-333" type="curve" smooth="yes"/>
      <point x="1119" y="869" type="line" smooth="yes"/>
      <point x="1127" y="915"/>
      <point x="1112" y="934"/>
      <point x="1059" y="934" type="curve" smooth="yes"/>
      <point x="1057" y="934" type="line" smooth="yes"/>
      <point x="1004" y="934"/>
      <point x="987" y="915"/>
      <point x="979" y="869" type="curve" smooth="yes"/>
      <point x="960" y="766" type="line"/>
      <point x="896" y="880"/>
      <point x="792" y="946"/>
      <point x="655" y="946" type="curve" smooth="yes"/>
    </contour>
    <contour>
      <point x="803" y="798"/>
      <point x="904" y="705"/>
      <point x="904" y="541" type="curve" smooth="yes"/>
      <point x="904" y="335"/>
      <point x="768" y="126"/>
      <point x="531" y="126" type="curve" smooth="yes"/>
      <point x="378" y="126"/>
      <point x="296" y="226"/>
      <point x="296" y="375" type="curve" smooth="yes"/>
      <point x="296" y="581"/>
      <point x="424" y="798"/>
      <point x="649" y="798" type="curve" smooth="yes"/>
    </contour>
  </outline>
</glyph>
<glyph name="r" format="1">
  <advance width="1228"/>
  <unicode hex="0072"/>
  <outline>
    <contour>
      <point x="813" y="946"/>
      <point x="638" y="837"/>
      <point x="490" y="649" type="curve"/>
      <point x="530" y="869" type="line" smooth="yes"/>
      <point x="538" y="915"/>
      <point x="523" y="934"/>
      <point x="470" y="934" type="curve" smooth="yes"/>
      <point x="468" y="934" type="line" smooth="yes"/>
      <point x="415" y="934"/>
      <point x="398" y="915"/>
      <point x="390" y="869" type="curve" smooth="yes"/>
      <point x="246" y="55" type="line" smooth="yes"/>
      <point x="238" y="9"/>
      <point x="253" y="-10"/>
      <point x="309" y="-10" type="curve" smooth="yes"/>
      <point x="311" y="-10" type="line" smooth="yes"/>
      <point x="364" y="-10"/>
      <point x="388" y="9"/>
      <point x="396" y="55" type="curve" smooth="yes"/>
      <point x="434" y="270" type="line" smooth="yes"/>
      <point x="484" y="554"/>
      <point x="732" y="786"/>
      <point x="964" y="786" type="curve" smooth="yes"/>
      <point x="1000" y="786"/>
      <point x="1036" y="780"/>
      <point x="1071" y="768" type="curve" smooth="yes"/>
      <point x="1110" y="754"/>
      <point x="1137" y="775"/>
      <point x="1152" y="829" type="curve" smooth="yes"/>
      <point x="1166" y="879"/>
      <point x="1159" y="911"/>
      <point x="1119" y="925" type="curve" smooth="yes"/>
      <point x="1077" y="939"/>
      <point x="1035" y="946"/>
      <point x="992" y="946" type="curve" smooth="yes"/>
    </contour>
  </outline>
</glyph>
<glyph name="s" format="1">
  <advance width="1228"/>
  <unicode hex="0073"/>
  <outline>
    <contour>
      <point x="362" y="946"/>
      <point x="229" y="799"/>
      <point x="229" y="639" type="curve" smooth="yes"/>
      <point x="229" y="529"/>
      <point x="294" y="465"/>
      <point x="385" y="437" type="curve" smooth="yes"/>
      <point x="509" y="399"/>
      <point x="640" y="408"/>
      <point x="763" y="382" type="curve" smooth="yes"/>
      <point x="830" y="368"/>
      <point x="871" y="338"/>
      <point x="871" y="283" type="curve" smooth="yes"/>
      <point x="871" y="224"/>
      <point x="815" y="123"/>
      <point x="603" y="123" type="curve" smooth="yes"/>
      <point x="467" y="123"/>
      <point x="342" y="155"/>
      <point x="243" y="217" type="curve" smooth="yes"/>
      <point x="214" y="235"/>
      <point x="181" y="234"/>
      <point x="151" y="179" type="curve" smooth="yes"/>
      <point x="124" y="130"/>
      <point x="136" y="99"/>
      <point x="170" y="78" type="curve" smooth="yes"/>
      <point x="285" y="7"/>
      <point x="426" y="-22"/>
      <point x="588" y="-22" type="curve" smooth="yes"/>
      <point x="937" y="-22"/>
      <point x="1031" y="175"/>
      <point x="1031" y="300" type="curve" smooth="yes"/>
      <point x="1031" y="417"/>
      <point x="963" y="482"/>
      <point x="870" y="510" type="curve" smooth="yes"/>
      <point x="750" y="546"/>
      <point x="619" y="539"/>
      <point x="498" y="563" type="curve" smooth="yes"/>
      <point x="432" y="576"/>
      <point x="389" y="603"/>
      <point x="389" y="655" type="curve" smooth="yes"/>
      <point x="389" y="728"/>
      <point x="464" y="801"/>
      <point x="629" y="801" type="curve" smooth="yes"/>
      <point x="752" y="801"/>
      <point x="870" y="774"/>
      <point x="968" y="718" type="curve" smooth="yes"/>
      <point x="998" y="701"/>
      <point x="1033" y="707"/>
      <point x="1059" y="759" type="curve" smooth="yes"/>
      <point x="1084" y="809"/>
      <point x="1072" y="840"/>
      <point x="1037" y="859" type="curve" smooth="yes"/>
      <point x="924" y="920"/>
      <point x="784" y="946"/>
      <point x="638" y="946" type="curve" smooth="yes"/>
    </contour>
  </outline>
</glyph>
<glyph name="t" format="1">
  <advance width="1228"/>
  <unicode hex="0074"/>
  <outline>
    <contour>
      <point x="543" y="1209"/>
      <point x="522" y="1190"/>
      <point x="514" y="1144" type="curve" smooth="yes"/>
      <point x="373" y="341" type="line" smooth="yes"/>
      <point x="367" y="304"/>
      <point x="363" y="269"/>
      <point x="363" y="237" type="curve" smooth="yes"/>
      <point x="363" y="72"/>
      <point x="452" y="-22"/>
      <point x="646" y="-22" type="curve" smooth="yes"/>
      <point x="764" y="-22"/>
      <point x="904" y="27"/>
      <point x="1015" y="90" type="curve" smooth="yes"/>
      <point x="1052" y="111"/>
      <point x="1063" y="138"/>
      <point x="1045" y="186" type="curve" smooth="yes"/>
      <point x="1027" y="233"/>
      <point x="995" y="245"/>
      <point x="962" y="225" type="curve" smooth="yes"/>
      <point x="865" y="168"/>
      <point x="754" y="124"/>
      <point x="661" y="124" type="curve" smooth="yes"/>
      <point x="555" y="124"/>
      <point x="514" y="170"/>
      <point x="514" y="261" type="curve" smooth="yes"/>
      <point x="514" y="285"/>
      <point x="517" y="313"/>
      <point x="523" y="344" type="curve" smooth="yes"/>
      <point x="664" y="1144" type="line" smooth="yes"/>
      <point x="672" y="1190"/>
      <point x="655" y="1209"/>
      <point x="599" y="1209" type="curve" smooth="yes"/>
    </contour>
    <contour>
      <point x="258" y="844" type="line" smooth="yes"/>
      <point x="213" y="844"/>
      <point x="192" y="824"/>
      <point x="183" y="772" type="curve" smooth="yes"/>
      <point x="173" y="720"/>
      <point x="188" y="700"/>
      <point x="233" y="700" type="curve" smooth="yes"/>
      <point x="997" y="700" type="line" smooth="yes"/>
      <point x="1042" y="700"/>
      <point x="1063" y="720"/>
      <point x="1073" y="772" type="curve" smooth="yes"/>
      <point x="1082" y="824"/>
      <point x="1067" y="844"/>
      <point x="1022" y="844" type="curve" smooth="yes"/>
    </contour>
  </outline>
</glyph>
<glyph name="y" format="1">
  <advance width="1228"/>
  <unicode hex="0079"/>
  <outline>
    <contour>
      <point x="1088" y="946"/>
      <point x="1064" y="941"/>
      <point x="1035" y="898" type="curve" smooth="yes"/>
      <point x="496" y="97" type="line"/>
      <point x="231" y="-291" type="line" smooth="yes"/>
      <point x="202" y="-334"/>
      <point x="210" y="-362"/>
      <point x="256" y="-388" type="curve" smooth="yes"/>
      <point x="301" y="-414"/>
      <point x="331" y="-407"/>
      <point x="360" y="-364" type="curve" smooth="yes"/>
      <point x="1168" y="830" type="line" smooth="yes"/>
      <point x="1197" y="873"/>
      <point x="1185" y="901"/>
      <point x="1136" y="924" type="curve" smooth="yes"/>
    </contour>
    <contour>
      <point x="206" y="909"/>
      <point x="192" y="883"/>
      <point x="206" y="840" type="curve" smooth="yes"/>
      <point x="486" y="-15" type="line"/>
      <point x="596" y="140" type="line"/>
      <point x="353" y="890" type="line" smooth="yes"/>
      <point x="339" y="933"/>
      <point x="317" y="938"/>
      <point x="263" y="924" type="curve" smooth="yes"/>
    </contour>
  </outline>
</glyph>
<glyph name="braceleft" format="1">
  <advance width="1228"/>
  <unicode hex="007B"/>
  <outline>
    <contour>
      <point x="775" y="1312"/>
      <point x="628" y="1210"/>
      <point x="583" y="956" type="curve" smooth="yes"/>
      <point x="550" y="770" type="line" smooth="yes"/>
      <point x="525" y="625"/>
      <point x="443" y="553"/>
      <point x="296" y="553" type="curve" smooth="yes"/>
      <point x="251" y="553"/>
      <point x="230" y="531"/>
      <point x="221" y="481" type="curve" smooth="yes"/>
      <point x="212" y="431"/>
      <point x="227" y="409"/>
      <point x="272" y="409" type="curve" smooth="yes"/>
      <point x="419" y="409"/>
      <point x="474" y="338"/>
      <point x="449" y="193" type="curve" smooth="yes"/>
      <point x="414" y="-3" type="line" smooth="yes"/>
      <point x="369" y="-257"/>
      <point x="477" y="-393"/>
      <point x="707" y="-393" type="curve" smooth="yes"/>
      <point x="752" y="-393"/>
      <point x="774" y="-373"/>
      <point x="783" y="-321" type="curve" smooth="yes"/>
      <point x="792" y="-269"/>
      <point x="778" y="-249"/>
      <point x="733" y="-249" type="curve" smooth="yes"/>
      <point x="579" y="-249"/>
      <point x="533" y="-177"/>
      <point x="563" y="-8" type="curve" smooth="yes"/>
      <point x="600" y="203" type="line" smooth="yes"/>
      <point x="622" y="325"/>
      <point x="589" y="424"/>
      <point x="502" y="482" type="curve"/>
      <point x="610" y="540"/>
      <point x="678" y="638"/>
      <point x="699" y="760" type="curve" smooth="yes"/>
      <point x="728" y="927" type="line" smooth="yes"/>
      <point x="756" y="1090"/>
      <point x="835" y="1168"/>
      <point x="982" y="1168" type="curve" smooth="yes"/>
      <point x="1027" y="1168"/>
      <point x="1049" y="1188"/>
      <point x="1058" y="1240" type="curve" smooth="yes"/>
      <point x="1067" y="1292"/>
      <point x="1053" y="1312"/>
      <point x="1008" y="1312" type="curve" smooth="yes"/>
    </contour>
  </outline>
</glyph>
<glyph name="braceright" format="1">
  <advance width="1228"/>
  <unicode hex="007D"/>
  <outline>
    <contour>
      <point x="497" y="1312"/>
      <point x="475" y="1292"/>
      <point x="466" y="1240" type="curve" smooth="yes"/>
      <point x="457" y="1188"/>
      <point x="471" y="1168"/>
      <point x="516" y="1168" type="curve" smooth="yes"/>
      <point x="670" y="1168"/>
      <point x="716" y="1096"/>
      <point x="686" y="927" type="curve" smooth="yes"/>
      <point x="657" y="759" type="line" smooth="yes"/>
      <point x="635" y="637"/>
      <point x="668" y="538"/>
      <point x="755" y="480" type="curve"/>
      <point x="647" y="422"/>
      <point x="579" y="324"/>
      <point x="558" y="202" type="curve" smooth="yes"/>
      <point x="521" y="-8" type="line" smooth="yes"/>
      <point x="493" y="-171"/>
      <point x="414" y="-249"/>
      <point x="267" y="-249" type="curve" smooth="yes"/>
      <point x="222" y="-249"/>
      <point x="200" y="-269"/>
      <point x="191" y="-321" type="curve" smooth="yes"/>
      <point x="182" y="-373"/>
      <point x="196" y="-393"/>
      <point x="241" y="-393" type="curve" smooth="yes"/>
      <point x="474" y="-393"/>
      <point x="621" y="-291"/>
      <point x="666" y="-37" type="curve" smooth="yes"/>
      <point x="707" y="192" type="line" smooth="yes"/>
      <point x="732" y="337"/>
      <point x="814" y="409"/>
      <point x="961" y="409" type="curve" smooth="yes"/>
      <point x="1006" y="409"/>
      <point x="1027" y="431"/>
      <point x="1036" y="481" type="curve" smooth="yes"/>
      <point x="1045" y="531"/>
      <point x="1030" y="553"/>
      <point x="985" y="553" type="curve" smooth="yes"/>
      <point x="838" y="553"/>
      <point x="783" y="624"/>
      <point x="808" y="769" type="curve" smooth="yes"/>
      <point x="835" y="922" type="line" smooth="yes"/>
      <point x="880" y="1176"/>
      <point x="772" y="1312"/>
      <point x="542" y="1312" type="curve" smooth="yes"/>
    </contour>
  </outline>
</glyph>
<glyph name="cent" format="1">
  <advance width="1228"/>
  <unicode hex="00A2"/>
  <outline>
    <contour>
      <point x="756" y="1312"/>
      <point x="731" y="1293"/>
      <point x="723" y="1247" type="curve" smooth="yes"/>
      <point x="493" y="-60" type="line" smooth="yes"/>
      <point x="485" y="-106"/>
      <point x="502" y="-125"/>
      <point x="551" y="-125" type="curve" smooth="yes"/>
      <point x="600" y="-125"/>
      <point x="625" y="-106"/>
      <point x="633" y="-60" type="curve" smooth="yes"/>
      <point x="863" y="1247" type="line" smooth="yes"/>
      <point x="871" y="1293"/>
      <point x="854" y="1312"/>
      <point x="805" y="1312" type="curve" smooth="yes"/>
    </contour>
    <component base="c" xOffset="25" yOffset="140"/>
  </outline>
</glyph>
<glyph name="sterling" format="1">
  <advance width="1228"/>
  <unicode hex="00A3"/>
  <outline>
    <contour>
      <point x="508" y="1209"/>
      <point x="370" y="1023"/>
      <point x="370" y="839" type="curve" smooth="yes"/>
      <point x="370" y="715"/>
      <point x="443" y="619"/>
      <point x="443" y="504" type="curve" smooth="yes"/>
      <point x="443" y="364"/>
      <point x="361" y="252"/>
      <point x="227" y="138" type="curve" smooth="yes"/>
      <point x="210" y="124"/>
      <point x="199" y="108"/>
      <point x="199" y="87" type="curve" smooth="yes"/>
      <point x="199" y="45"/>
      <point x="213" y="0"/>
      <point x="244" y="0" type="curve" smooth="yes"/>
      <point x="845" y="0" type="line" smooth="yes"/>
      <point x="890" y="0"/>
      <point x="911" y="20"/>
      <point x="920" y="72" type="curve" smooth="yes"/>
      <point x="929" y="124"/>
      <point x="915" y="144"/>
      <point x="870" y="144" type="curve" smooth="yes"/>
      <point x="413" y="144" type="line"/>
      <point x="525" y="245"/>
      <point x="594" y="369"/>
      <point x="594" y="512" type="curve" smooth="yes"/>
      <point x="594" y="650"/>
      <point x="523" y="734"/>
      <point x="523" y="837" type="curve" smooth="yes"/>
      <point x="523" y="950"/>
      <point x="604" y="1061"/>
      <point x="744" y="1061" type="curve" smooth="yes"/>
      <point x="823" y="1061"/>
      <point x="897" y="1041"/>
      <point x="967" y="996" type="curve" smooth="yes"/>
      <point x="995" y="978"/>
      <point x="1021" y="981"/>
      <point x="1052" y="1028" type="curve" smooth="yes"/>
      <point x="1083" y="1075"/>
      <point x="1081" y="1103"/>
      <point x="1049" y="1124" type="curve" smooth="yes"/>
      <point x="972" y="1176"/>
      <point x="872" y="1209"/>
      <point x="761" y="1209" type="curve" smooth="yes"/>
    </contour>
    <contour>
      <point x="327" y="648" type="line" smooth="yes"/>
      <point x="282" y="648"/>
      <point x="260" y="628"/>
      <point x="251" y="576" type="curve" smooth="yes"/>
      <point x="242" y="524"/>
      <point x="256" y="504"/>
      <point x="301" y="504" type="curve" smooth="yes"/>
      <point x="833" y="504" type="line" smooth="yes"/>
      <point x="878" y="504"/>
      <point x="900" y="524"/>
      <point x="909" y="576" type="curve" smooth="yes"/>
      <point x="918" y="628"/>
      <point x="904" y="648"/>
      <point x="859" y="648" type="curve" smooth="yes"/>
    </contour>
  </outline>
</glyph>
<glyph name="section" format="1">
  <advance width="1228"/>
  <unicode hex="00A7"/>
  <outline>
    <contour>
      <point x="698" y="1187" type="line" smooth="yes"/>
      <point x="498" y="1187"/>
      <point x="388" y="1077"/>
      <point x="388" y="903" type="curve" smooth="yes"/>
      <point x="388" y="808"/>
      <point x="434" y="738"/>
      <point x="502" y="691" type="curve" smooth="yes"/>
      <point x="799" y="485" type="line" smooth="yes"/>
      <point x="849" y="451"/>
      <point x="872" y="410"/>
      <point x="872" y="362" type="curve" smooth="yes"/>
      <point x="872" y="284"/>
      <point x="827" y="244"/>
      <point x="759" y="210" type="curve"/>
      <point x="816" y="93" type="line"/>
      <point x="945" y="154"/>
      <point x="1024" y="232"/>
      <point x="1024" y="373" type="curve" smooth="yes"/>
      <point x="1024" y="467"/>
      <point x="978" y="546"/>
      <point x="895" y="604" type="curve" smooth="yes"/>
      <point x="608" y="804" type="line" smooth="yes"/>
      <point x="561" y="836"/>
      <point x="541" y="870"/>
      <point x="541" y="913" type="curve" smooth="yes"/>
      <point x="541" y="996"/>
      <point x="594" y="1043"/>
      <point x="703" y="1043" type="curve" smooth="yes"/>
      <point x="1009" y="1043" type="line" smooth="yes"/>
      <point x="1054" y="1043"/>
      <point x="1075" y="1063"/>
      <point x="1084" y="1115" type="curve" smooth="yes"/>
      <point x="1094" y="1167"/>
      <point x="1079" y="1187"/>
      <point x="1034" y="1187" type="curve" smooth="yes"/>
    </contour>
    <contour>
      <point x="311" y="803"/>
      <point x="232" y="725"/>
      <point x="232" y="584" type="curve" smooth="yes"/>
      <point x="232" y="489"/>
      <point x="278" y="411"/>
      <point x="361" y="353" type="curve" smooth="yes"/>
      <point x="648" y="153" type="line" smooth="yes"/>
      <point x="695" y="120"/>
      <point x="715" y="87"/>
      <point x="715" y="43" type="curve" smooth="yes"/>
      <point x="715" y="-39"/>
      <point x="662" y="-86"/>
      <point x="553" y="-86" type="curve" smooth="yes"/>
      <point x="247" y="-86" type="line" smooth="yes"/>
      <point x="202" y="-86"/>
      <point x="181" y="-106"/>
      <point x="172" y="-158" type="curve" smooth="yes"/>
      <point x="162" y="-210"/>
      <point x="177" y="-230"/>
      <point x="222" y="-230" type="curve" smooth="yes"/>
      <point x="558" y="-230" type="line" smooth="yes"/>
      <point x="757" y="-230"/>
      <point x="868" y="-120"/>
      <point x="868" y="53" type="curve" smooth="yes"/>
      <point x="868" y="149"/>
      <point x="822" y="219"/>
      <point x="754" y="266" type="curve" smooth="yes"/>
      <point x="457" y="472" type="line" smooth="yes"/>
      <point x="407" y="506"/>
      <point x="384" y="547"/>
      <point x="384" y="594" type="curve" smooth="yes"/>
      <point x="384" y="672"/>
      <point x="429" y="713"/>
      <point x="497" y="747" type="curve"/>
      <point x="440" y="864" type="line"/>
    </contour>
  </outline>
</glyph>
<glyph name="ordfeminine" format="1">
  <advance width="1228"/>
  <unicode hex="00AA"/>
  <outline>
    <contour>
      <point x="453" y="1209"/>
      <point x="319" y="962"/>
      <point x="319" y="763" type="curve" smooth="yes"/>
      <point x="319" y="580"/>
      <point x="443" y="465"/>
      <point x="609" y="465" type="curve" smooth="yes"/>
      <point x="707" y="465"/>
      <point x="796" y="508"/>
      <point x="874" y="592" type="curve"/>
      <point x="856" y="607" type="line"/>
      <point x="842" y="524" type="line" smooth="yes"/>
      <point x="836" y="489"/>
      <point x="845" y="474"/>
      <point x="898" y="474" type="curve" smooth="yes"/>
      <point x="951" y="474"/>
      <point x="964" y="489"/>
      <point x="970" y="524" type="curve" smooth="yes"/>
      <point x="1081" y="1150" type="line" smooth="yes"/>
      <point x="1087" y="1185"/>
      <point x="1078" y="1200"/>
      <point x="1025" y="1200" type="curve" smooth="yes"/>
      <point x="972" y="1200"/>
      <point x="960" y="1185"/>
      <point x="953" y="1150" type="curve" smooth="yes"/>
      <point x="940" y="1083" type="line"/>
      <point x="903" y="1158"/>
      <point x="831" y="1209"/>
      <point x="724" y="1209" type="curve" smooth="yes"/>
    </contour>
    <contour>
      <point x="830" y="1077"/>
      <point x="897" y="1020"/>
      <point x="897" y="898" type="curve" smooth="yes"/>
      <point x="897" y="739"/>
      <point x="811" y="597"/>
      <point x="629" y="597" type="curve" smooth="yes"/>
      <point x="526" y="597"/>
      <point x="462" y="660"/>
      <point x="462" y="770" type="curve" smooth="yes"/>
      <point x="462" y="929"/>
      <point x="562" y="1077"/>
      <point x="715" y="1077" type="curve" smooth="yes"/>
    </contour>
  </outline>
</glyph>
<glyph name="logicalnot" format="1">
  <advance width="1228"/>
  <unicode hex="00AC"/>
  <outline>
    <contour>
      <point x="282" y="849" type="line" smooth="yes"/>
      <point x="237" y="849"/>
      <point x="216" y="829"/>
      <point x="207" y="777" type="curve" smooth="yes"/>
      <point x="197" y="725"/>
      <point x="212" y="705"/>
      <point x="257" y="705" type="curve" smooth="yes"/>
      <point x="982" y="705" type="line"/>
      <point x="925" y="383" type="line" smooth="yes"/>
      <point x="917" y="337"/>
      <point x="933" y="318"/>
      <point x="989" y="318" type="curve" smooth="yes"/>
      <point x="1045" y="318"/>
      <point x="1067" y="337"/>
      <point x="1075" y="383" type="curve" smooth="yes"/>
      <point x="1145" y="781" type="line" smooth="yes"/>
      <point x="1154" y="831"/>
      <point x="1139" y="849"/>
      <point x="1094" y="849" type="curve" smooth="yes"/>
    </contour>
  </outline>
</glyph>
<glyph name="plusminus" format="1">
  <advance width="1228"/>
  <unicode hex="00B1"/>
  <outline>
    <contour>
      <point x="688" y="1126"/>
      <point x="667" y="1108"/>
      <point x="659" y="1063" type="curve" smooth="yes"/>
      <point x="615" y="814" type="line"/>
      <point x="306" y="814" type="line" smooth="yes"/>
      <point x="261" y="814"/>
      <point x="239" y="794"/>
      <point x="230" y="742" type="curve" smooth="yes"/>
      <point x="221" y="690"/>
      <point x="235" y="670"/>
      <point x="280" y="670" type="curve" smooth="yes"/>
      <point x="590" y="670" type="line"/>
      <point x="546" y="421" type="line" smooth="yes"/>
      <point x="538" y="376"/>
      <point x="557" y="358"/>
      <point x="609" y="358" type="curve" smooth="yes"/>
      <point x="661" y="358"/>
      <point x="682" y="376"/>
      <point x="690" y="421" type="curve" smooth="yes"/>
      <point x="734" y="670" type="line"/>
      <point x="1042" y="670" type="line" smooth="yes"/>
      <point x="1087" y="670"/>
      <point x="1109" y="690"/>
      <point x="1118" y="742" type="curve" smooth="yes"/>
      <point x="1127" y="794"/>
      <point x="1113" y="814"/>
      <point x="1068" y="814" type="curve" smooth="yes"/>
      <point x="759" y="814" type="line"/>
      <point x="803" y="1063" type="line" smooth="yes"/>
      <point x="811" y="1108"/>
      <point x="792" y="1126"/>
      <point x="740" y="1126" type="curve" smooth="yes"/>
    </contour>
    <contour>
      <point x="208" y="254" type="line" smooth="yes"/>
      <point x="163" y="254"/>
      <point x="141" y="234"/>
      <point x="132" y="182" type="curve" smooth="yes"/>
      <point x="123" y="130"/>
      <point x="137" y="110"/>
      <point x="182" y="110" type="curve" smooth="yes"/>
      <point x="944" y="110" type="line" smooth="yes"/>
      <point x="989" y="110"/>
      <point x="1011" y="130"/>
      <point x="1020" y="182" type="curve" smooth="yes"/>
      <point x="1029" y="234"/>
      <point x="1015" y="254"/>
      <point x="970" y="254" type="curve" smooth="yes"/>
    </contour>
  </outline>
</glyph>
<glyph name="threesuperior" format="1">
  <advance width="1228"/>
  <unicode hex="00B3"/>
  <outline>
    <contour>
      <point x="666" y="1334"/>
      <point x="571" y="1314"/>
      <point x="486" y="1274" type="curve" smooth="yes"/>
      <point x="458" y="1261"/>
      <point x="449" y="1235"/>
      <point x="459" y="1200" type="curve" smooth="yes"/>
      <point x="471" y="1158"/>
      <point x="493" y="1143"/>
      <point x="520" y="1155" type="curve" smooth="yes"/>
      <point x="593" y="1186"/>
      <point x="667" y="1205"/>
      <point x="745" y="1205" type="curve" smooth="yes"/>
      <point x="827" y="1205"/>
      <point x="883" y="1171"/>
      <point x="883" y="1104" type="curve" smooth="yes"/>
      <point x="883" y="1021"/>
      <point x="830" y="965"/>
      <point x="689" y="965" type="curve" smooth="yes"/>
      <point x="650" y="965" type="line" smooth="yes"/>
      <point x="616" y="965"/>
      <point x="601" y="941"/>
      <point x="595" y="905" type="curve" smooth="yes"/>
      <point x="589" y="868"/>
      <point x="595" y="840"/>
      <point x="628" y="840" type="curve" smooth="yes"/>
      <point x="680" y="840" type="line" smooth="yes"/>
      <point x="779" y="840"/>
      <point x="845" y="817"/>
      <point x="845" y="741" type="curve" smooth="yes"/>
      <point x="845" y="647"/>
      <point x="765" y="594"/>
      <point x="633" y="594" type="curve" smooth="yes"/>
      <point x="568" y="594"/>
      <point x="486" y="614"/>
      <point x="415" y="648" type="curve" smooth="yes"/>
      <point x="387" y="661"/>
      <point x="366" y="648"/>
      <point x="345" y="609" type="curve" smooth="yes"/>
      <point x="324" y="570"/>
      <point x="329" y="545"/>
      <point x="351" y="532" type="curve" smooth="yes"/>
      <point x="427" y="489"/>
      <point x="526" y="465"/>
      <point x="628" y="465" type="curve" smooth="yes"/>
      <point x="863" y="465"/>
      <point x="987" y="584"/>
      <point x="987" y="751" type="curve" smooth="yes"/>
      <point x="987" y="828"/>
      <point x="947" y="884"/>
      <point x="878" y="913" type="curve"/>
      <point x="971" y="956"/>
      <point x="1026" y="1030"/>
      <point x="1026" y="1121" type="curve" smooth="yes"/>
      <point x="1026" y="1251"/>
      <point x="931" y="1334"/>
      <point x="764" y="1334" type="curve" smooth="yes"/>
    </contour>
  </outline>
</glyph>
<glyph name="paragraph" format="1">
  <advance width="1228"/>
  <unicode hex="00B6"/>
  <outline>
    <contour>
      <point x="677" y="1187" type="line" smooth="yes"/>
      <point x="360" y="1187"/>
      <point x="205" y="997"/>
      <point x="205" y="789" type="curve" smooth="yes"/>
      <point x="205" y="617"/>
      <point x="337" y="508"/>
      <point x="544" y="502" type="curve"/>
      <point x="395" y="-345" type="line" smooth="yes"/>
      <point x="387" y="-391"/>
      <point x="402" y="-410"/>
      <point x="458" y="-410" type="curve" smooth="yes"/>
      <point x="514" y="-410"/>
      <point x="537" y="-391"/>
      <point x="545" y="-345" type="curve" smooth="yes"/>
      <point x="789" y="1043" type="line"/>
      <point x="949" y="1043" type="line"/>
      <point x="705" y="-345" type="line" smooth="yes"/>
      <point x="697" y="-391"/>
      <point x="712" y="-410"/>
      <point x="768" y="-410" type="curve" smooth="yes"/>
      <point x="824" y="-410"/>
      <point x="847" y="-391"/>
      <point x="855" y="-345" type="curve" smooth="yes"/>
      <point x="1099" y="1043" type="line"/>
      <point x="1167" y="1043" type="line" smooth="yes"/>
      <point x="1212" y="1043"/>
      <point x="1234" y="1063"/>
      <point x="1243" y="1115" type="curve" smooth="yes"/>
      <point x="1252" y="1167"/>
      <point x="1238" y="1187"/>
      <point x="1193" y="1187" type="curve" smooth="yes"/>
    </contour>
  </outline>
</glyph>
<glyph name="AE" format="1">
  <advance width="1228"/>
  <unicode hex="00C6"/>
  <outline>
    <contour>
      <point x="658" y="1187" type="line" smooth="yes"/>
      <point x="613" y="1187"/>
      <point x="585" y="1169"/>
      <point x="557" y="1119" type="curve" smooth="yes"/>
      <point x="-26" y="91" type="line" smooth="yes"/>
      <point x="-51" y="47"/>
      <point x="-43" y="22"/>
      <point x="4" y="0" type="curve" smooth="yes"/>
      <point x="52" y="-23"/>
      <point x="85" y="-16"/>
      <point x="110" y="28" type="curve" smooth="yes"/>
      <point x="319" y="398" type="line"/>
      <point x="346" y="448" type="line"/>
      <point x="669" y="1043" type="line"/>
      <point x="689" y="1043" type="line"/>
      <point x="516" y="68" type="line" smooth="yes"/>
      <point x="507" y="18"/>
      <point x="525" y="0"/>
      <point x="570" y="0" type="curve" smooth="yes"/>
      <point x="1037" y="0" type="line" smooth="yes"/>
      <point x="1082" y="0"/>
      <point x="1103" y="20"/>
      <point x="1112" y="72" type="curve" smooth="yes"/>
      <point x="1121" y="124"/>
      <point x="1107" y="144"/>
      <point x="1062" y="144" type="curve" smooth="yes"/>
      <point x="680" y="144" type="line"/>
      <point x="750" y="540" type="line"/>
      <point x="1067" y="540" type="line" smooth="yes"/>
      <point x="1112" y="540"/>
      <point x="1133" y="560"/>
      <point x="1142" y="612" type="curve" smooth="yes"/>
      <point x="1152" y="664"/>
      <point x="1137" y="684"/>
      <point x="1092" y="684" type="curve" smooth="yes"/>
      <point x="775" y="684" type="line"/>
      <point x="838" y="1043" type="line"/>
      <point x="1200" y="1043" type="line" smooth="yes"/>
      <point x="1245" y="1043"/>
      <point x="1267" y="1063"/>
      <point x="1276" y="1115" type="curve" smooth="yes"/>
      <point x="1285" y="1167"/>
      <point x="1271" y="1187"/>
      <point x="1226" y="1187" type="curve" smooth="yes"/>
    </contour>
    <contour>
      <point x="298" y="514" type="line"/>
      <point x="248" y="370" type="line"/>
      <point x="612" y="370" type="line"/>
      <point x="649" y="514" type="line"/>
    </contour>
  </outline>
</glyph>
<glyph name="multiply" format="1">
  <advance width="1228"/>
  <unicode hex="00D7"/>
  <outline>
    <contour>
      <point x="1003" y="956"/>
      <point x="974" y="959"/>
      <point x="940" y="930" type="curve" smooth="yes"/>
      <point x="253" y="338" type="line" smooth="yes"/>
      <point x="219" y="309"/>
      <point x="221" y="281"/>
      <point x="254" y="245" type="curve" smooth="yes"/>
      <point x="288" y="208"/>
      <point x="317" y="205"/>
      <point x="351" y="234" type="curve" smooth="yes"/>
      <point x="1038" y="826" type="line" smooth="yes"/>
      <point x="1072" y="855"/>
      <point x="1070" y="883"/>
      <point x="1037" y="919" type="curve" smooth="yes"/>
    </contour>
    <contour>
      <point x="306" y="909"/>
      <point x="299" y="883"/>
      <point x="328" y="849" type="curve" smooth="yes"/>
      <point x="850" y="227" type="line" smooth="yes"/>
      <point x="879" y="193"/>
      <point x="910" y="191"/>
      <point x="948" y="223" type="curve" smooth="yes"/>
      <point x="986" y="255"/>
      <point x="993" y="281"/>
      <point x="964" y="315" type="curve" smooth="yes"/>
      <point x="442" y="937" type="line" smooth="yes"/>
      <point x="413" y="971"/>
      <point x="382" y="973"/>
      <point x="344" y="941" type="curve" smooth="yes"/>
    </contour>
  </outline>
</glyph>
<glyph name="eth" format="1">
  <advance width="1228"/>
  <unicode hex="00F0"/>
  <outline>
    <contour>
      <point x="350" y="886"/>
      <point x="142" y="639"/>
      <point x="142" y="363" type="curve" smooth="yes"/>
      <point x="142" y="137"/>
      <point x="308" y="-22"/>
      <point x="550" y="-22" type="curve" smooth="yes"/>
      <point x="822" y="-22"/>
      <point x="1042" y="140"/>
      <point x="1090" y="412" type="curve"/>
      <point x="966" y="771" type="line"/>
      <point x="897" y="839"/>
      <point x="802" y="886"/>
      <point x="690" y="886" type="curve" smooth="yes"/>
    </contour>
    <contour>
      <point x="841" y="738"/>
      <point x="942" y="645"/>
      <point x="942" y="496" type="curve" smooth="yes"/>
      <point x="942" y="307"/>
      <point x="799" y="126"/>
      <point x="566" y="126" type="curve" smooth="yes"/>
      <point x="399" y="126"/>
      <point x="298" y="219"/>
      <point x="298" y="367" type="curve" smooth="yes"/>
      <point x="298" y="570"/>
      <point x="451" y="738"/>
      <point x="674" y="738" type="curve" smooth="yes"/>
    </contour>
    <contour>
      <point x="569" y="1343"/>
      <point x="540" y="1335"/>
      <point x="513" y="1288" type="curve" smooth="yes"/>
      <point x="487" y="1243"/>
      <point x="496" y="1215"/>
      <point x="533" y="1195" type="curve" smooth="yes"/>
      <point x="826" y="1038"/>
      <point x="1024" y="812"/>
      <point x="959" y="442" type="curve"/>
      <point x="1090" y="412" type="line"/>
      <point x="1101" y="473"/>
      <point x="1106" y="532"/>
      <point x="1106" y="587" type="curve" smooth="yes"/>
      <point x="1106" y="939"/>
      <point x="896" y="1171"/>
      <point x="606" y="1323" type="curve" smooth="yes"/>
    </contour>
    <contour>
      <point x="465" y="1074" type="line" smooth="yes"/>
      <point x="420" y="1058"/>
      <point x="410" y="1033"/>
      <point x="425" y="988" type="curve" smooth="yes"/>
      <point x="439" y="946"/>
      <point x="465" y="930"/>
      <point x="510" y="946" type="curve" smooth="yes"/>
      <point x="1102" y="1154" type="line" smooth="yes"/>
      <point x="1147" y="1170"/>
      <point x="1156" y="1197"/>
      <point x="1142" y="1240" type="curve" smooth="yes"/>
      <point x="1127" y="1286"/>
      <point x="1101" y="1298"/>
      <point x="1057" y="1282" type="curve" smooth="yes"/>
    </contour>
  </outline>
</glyph>
<glyph name="oslash" format="1">
  <advance width="1228"/>
  <unicode hex="00F8"/>
  <outline>
    <contour>
      <point x="85" y="101" type="line" smooth="yes"/>
      <point x="47" y="69"/>
      <point x="53" y="41"/>
      <point x="81" y="6" type="curve" smooth="yes"/>
      <point x="108" y="-29"/>
      <point x="146" y="-31"/>
      <point x="185" y="1" type="curve" smooth="yes"/>
      <point x="1163" y="822" type="line" smooth="yes"/>
      <point x="1203" y="854"/>
      <point x="1197" y="883"/>
      <point x="1169" y="918" type="curve" smooth="yes"/>
      <point x="1142" y="953"/>
      <point x="1103" y="955"/>
      <point x="1064" y="923" type="curve" smooth="yes"/>
    </contour>
    <component base="o"/>
  </outline>
</glyph>
<glyph name="Aogonek" format="1">
  <advance width="1228"/>
  <unicode hex="0104"/>
  <outline>
    <contour>
      <point x="692" y="1209"/>
      <point x="657" y="1191"/>
      <point x="631" y="1144" type="curve" smooth="yes"/>
      <point x="54" y="91" type="line" smooth="yes"/>
      <point x="30" y="47"/>
      <point x="38" y="23"/>
      <point x="87" y="0" type="curve" smooth="yes"/>
      <point x="135" y="-23"/>
      <point x="168" y="-16"/>
      <point x="192" y="28" type="curve" smooth="yes"/>
      <point x="356" y="330" type="line"/>
      <point x="860" y="330" type="line"/>
      <point x="918" y="33" type="line"/>
      <point x="763" y="-78"/>
      <point x="673" y="-188"/>
      <point x="673" y="-310" type="curve" smooth="yes"/>
      <point x="673" y="-406"/>
      <point x="731" y="-472"/>
      <point x="838" y="-472" type="curve" smooth="yes"/>
      <point x="902" y="-472"/>
      <point x="967" y="-460"/>
      <point x="1016" y="-443" type="curve" smooth="yes"/>
      <point x="1047" y="-432"/>
      <point x="1057" y="-411"/>
      <point x="1052" y="-374" type="curve" smooth="yes"/>
      <point x="1047" y="-337"/>
      <point x="1032" y="-322"/>
      <point x="1005" y="-326" type="curve" smooth="yes"/>
      <point x="969" y="-332"/>
      <point x="933" y="-336"/>
      <point x="894" y="-336" type="curve" smooth="yes"/>
      <point x="854" y="-336"/>
      <point x="829" y="-316"/>
      <point x="829" y="-277" type="curve" smooth="yes"/>
      <point x="829" y="-204"/>
      <point x="900" y="-114"/>
      <point x="1055" y="8" type="curve" smooth="yes"/>
      <point x="1070" y="20"/>
      <point x="1071" y="37"/>
      <point x="1066" y="63" type="curve" smooth="yes"/>
      <point x="855" y="1144" type="line" smooth="yes"/>
      <point x="846" y="1191"/>
      <point x="818" y="1209"/>
      <point x="755" y="1209" type="curve" smooth="yes"/>
    </contour>
    <contour>
      <point x="833" y="474" type="line"/>
      <point x="433" y="474" type="line"/>
      <point x="731" y="1043" type="line"/>
    </contour>
  </outline>
</glyph>
<glyph name="aogonek" format="1">
  <advance width="1228"/>
  <unicode hex="0105"/>
  <outline>
    <contour>
      <point x="302" y="946"/>
      <point x="143" y="625"/>
      <point x="143" y="366" type="curve" smooth="yes"/>
      <point x="143" y="127"/>
      <point x="290" y="-22"/>
      <point x="505" y="-22" type="curve" smooth="yes"/>
      <point x="633" y="-22"/>
      <point x="749" y="34"/>
      <point x="850" y="143" type="curve"/>
      <point x="832" y="38" type="line"/>
      <point x="671" y="-74"/>
      <point x="578" y="-186"/>
      <point x="578" y="-310" type="curve" smooth="yes"/>
      <point x="578" y="-406"/>
      <point x="636" y="-472"/>
      <point x="743" y="-472" type="curve" smooth="yes"/>
      <point x="807" y="-472"/>
      <point x="872" y="-460"/>
      <point x="921" y="-443" type="curve" smooth="yes"/>
      <point x="952" y="-432"/>
      <point x="962" y="-411"/>
      <point x="957" y="-374" type="curve" smooth="yes"/>
      <point x="952" y="-337"/>
      <point x="937" y="-322"/>
      <point x="910" y="-326" type="curve" smooth="yes"/>
      <point x="874" y="-332"/>
      <point x="838" y="-336"/>
      <point x="799" y="-336" type="curve" smooth="yes"/>
      <point x="759" y="-336"/>
      <point x="734" y="-316"/>
      <point x="734" y="-277" type="curve" smooth="yes"/>
      <point x="734" y="-205"/>
      <point x="801" y="-115"/>
      <point x="951" y="4" type="curve" smooth="yes"/>
      <point x="964" y="15"/>
      <point x="971" y="31"/>
      <point x="975" y="55" type="curve" smooth="yes"/>
      <point x="1119" y="869" type="line" smooth="yes"/>
      <point x="1127" y="915"/>
      <point x="1112" y="934"/>
      <point x="1059" y="934" type="curve" smooth="yes"/>
      <point x="1057" y="934" type="line" smooth="yes"/>
      <point x="1004" y="934"/>
      <point x="987" y="915"/>
      <point x="979" y="869" type="curve" smooth="yes"/>
      <point x="960" y="766" type="line"/>
      <point x="897" y="873"/>
      <point x="792" y="946"/>
      <point x="655" y="946" type="curve" smooth="yes"/>
    </contour>
    <contour>
      <point x="803" y="798"/>
      <point x="904" y="705"/>
      <point x="904" y="541" type="curve" smooth="yes"/>
      <point x="904" y="335"/>
      <point x="768" y="126"/>
      <point x="531" y="126" type="curve" smooth="yes"/>
      <point x="378" y="126"/>
      <point x="296" y="226"/>
      <point x="296" y="375" type="curve" smooth="yes"/>
      <point x="296" y="581"/>
      <point x="424" y="798"/>
      <point x="649" y="798" type="curve" smooth="yes"/>
    </contour>
  </outline>
</glyph>
<glyph name="dcaron" format="1">
  <advance width="1228"/>
  <unicode hex="010F"/>
  <outline>
    <contour>
      <point x="1012" y="1322" type="line" smooth="yes"/>
      <point x="959" y="1322"/>
      <point x="935" y="1303"/>
      <point x="927" y="1257" type="curve" smooth="yes"/>
      <point x="838" y="752" type="line"/>
      <point x="859" y="768" type="line"/>
      <point x="817" y="873"/>
      <point x="721" y="946"/>
      <point x="605" y="946" type="curve" smooth="yes"/>
      <point x="280" y="946"/>
      <point x="133" y="625"/>
      <point x="133" y="366" type="curve" smooth="yes"/>
      <point x="133" y="127"/>
      <point x="264" y="-22"/>
      <point x="455" y="-22" type="curve" smooth="yes"/>
      <point x="580" y="-22"/>
      <point x="678" y="39"/>
      <point x="758" y="133" type="curve"/>
      <point x="758" y="48"/>
      <point x="814" y="0"/>
      <point x="905" y="0" type="curve" smooth="yes"/>
      <point x="936" y="0" type="line" smooth="yes"/>
      <point x="981" y="0"/>
      <point x="1002" y="20"/>
      <point x="1012" y="72" type="curve" smooth="yes"/>
      <point x="1021" y="124"/>
      <point x="1006" y="144"/>
      <point x="961" y="144" type="curve" smooth="yes"/>
      <point x="936" y="144" type="line" smooth="yes"/>
      <point x="899" y="144"/>
      <point x="885" y="168"/>
      <point x="892" y="209" type="curve" smooth="yes"/>
      <point x="1077" y="1257" type="line" smooth="yes"/>
      <point x="1085" y="1303"/>
      <point x="1070" y="1322"/>
      <point x="1014" y="1322" type="curve" smooth="yes"/>
    </contour>
    <contour>
      <point x="717" y="798"/>
      <point x="794" y="705"/>
      <point x="794" y="541" type="curve" smooth="yes"/>
      <point x="794" y="335"/>
      <point x="682" y="126"/>
      <point x="481" y="126" type="curve" smooth="yes"/>
      <point x="354" y="126"/>
      <point x="286" y="226"/>
      <point x="286" y="375" type="curve" smooth="yes"/>
      <point x="286" y="581"/>
      <point x="398" y="798"/>
      <point x="599" y="798" type="curve" smooth="yes"/>
    </contour>
    <component base="caron.alt" xOffset="807"/>
  </outline>
</glyph>
<glyph name="dcroat" format="1">
  <advance width="1228"/>
  <unicode hex="0111"/>
  <outline>
    <contour>
      <point x="1103" y="1322" type="line" smooth="yes"/>
      <point x="1047" y="1322"/>
      <point x="1026" y="1303"/>
      <point x="1018" y="1257" type="curve" smooth="yes"/>
      <point x="915" y="674" type="line"/>
      <point x="948" y="698" type="line"/>
      <point x="889" y="811"/>
      <point x="785" y="886"/>
      <point x="641" y="886" type="curve" smooth="yes"/>
      <point x="352" y="886"/>
      <point x="159" y="641"/>
      <point x="159" y="347" type="curve" smooth="yes"/>
      <point x="159" y="113"/>
      <point x="302" y="-22"/>
      <point x="511" y="-22" type="curve" smooth="yes"/>
      <point x="648" y="-22"/>
      <point x="763" y="43"/>
      <point x="850" y="138" type="curve"/>
      <point x="850" y="50"/>
      <point x="904" y="0"/>
      <point x="996" y="0" type="curve" smooth="yes"/>
      <point x="1027" y="0" type="line" smooth="yes"/>
      <point x="1072" y="0"/>
      <point x="1093" y="20"/>
      <point x="1103" y="72" type="curve" smooth="yes"/>
      <point x="1112" y="124"/>
      <point x="1097" y="144"/>
      <point x="1052" y="144" type="curve" smooth="yes"/>
      <point x="1027" y="144" type="line" smooth="yes"/>
      <point x="990" y="144"/>
      <point x="976" y="168"/>
      <point x="983" y="209" type="curve" smooth="yes"/>
      <point x="1168" y="1257" type="line" smooth="yes"/>
      <point x="1176" y="1303"/>
      <point x="1161" y="1322"/>
      <point x="1105" y="1322" type="curve" smooth="yes"/>
    </contour>
    <contour>
      <point x="783" y="738"/>
      <point x="879" y="653"/>
      <point x="879" y="503" type="curve" smooth="yes"/>
      <point x="879" y="326"/>
      <point x="761" y="126"/>
      <point x="531" y="126" type="curve" smooth="yes"/>
      <point x="387" y="126"/>
      <point x="312" y="219"/>
      <point x="312" y="356" type="curve" smooth="yes"/>
      <point x="312" y="532"/>
      <point x="422" y="738"/>
      <point x="639" y="738" type="curve" smooth="yes"/>
    </contour>
    <contour>
      <point x="746" y="1150" type="line" smooth="yes"/>
      <point x="701" y="1150"/>
      <point x="679" y="1130"/>
      <point x="670" y="1078" type="curve" smooth="yes"/>
      <point x="661" y="1026"/>
      <point x="675" y="1006"/>
      <point x="720" y="1006" type="curve" smooth="yes"/>
      <point x="1262" y="1006" type="line" smooth="yes"/>
      <point x="1307" y="1006"/>
      <point x="1329" y="1026"/>
      <point x="1338" y="1078" type="curve" smooth="yes"/>
      <point x="1347" y="1130"/>
      <point x="1333" y="1150"/>
      <point x="1288" y="1150" type="curve" smooth="yes"/>
    </contour>
  </outline>
</glyph>
<glyph name="eogonek" format="1">
  <advance width="1228"/>
  <unicode hex="0119"/>
  <outline>
    <contour>
      <point x="379" y="946"/>
      <point x="150" y="684"/>
      <point x="150" y="354" type="curve" smooth="yes"/>
      <point x="150" y="122"/>
      <point x="287" y="-22"/>
      <point x="539" y="-22" type="curve" smooth="yes"/>
      <point x="591.612" y="-22"/>
      <point x="644.898" y="-17.5062"/>
      <point x="696.728" y="-9.6912" type="curve"/>
      <point x="576.235" y="-106.865"/>
      <point x="508" y="-203.727"/>
      <point x="508" y="-310" type="curve" smooth="yes"/>
      <point x="508" y="-406"/>
      <point x="566" y="-472"/>
      <point x="673" y="-472" type="curve" smooth="yes"/>
      <point x="737" y="-472"/>
      <point x="802" y="-460"/>
      <point x="851" y="-443" type="curve" smooth="yes"/>
      <point x="882" y="-432"/>
      <point x="892" y="-411"/>
      <point x="887" y="-374" type="curve" smooth="yes"/>
      <point x="882" y="-337"/>
      <point x="867" y="-322"/>
      <point x="840" y="-326" type="curve" smooth="yes"/>
      <point x="804" y="-332"/>
      <point x="768" y="-336"/>
      <point x="729" y="-336" type="curve" smooth="yes"/>
      <point x="689" y="-336"/>
      <point x="664" y="-316"/>
      <point x="664" y="-277" type="curve" smooth="yes"/>
      <point x="664" y="-195.038"/>
      <point x="753" y="-84"/>
      <point x="992" y="86" type="curve" smooth="yes"/>
      <point x="1017" y="104"/>
      <point x="1022" y="129"/>
      <point x="1010" y="166" type="curve" smooth="yes"/>
      <point x="994" y="217"/>
      <point x="962" y="232"/>
      <point x="929" y="215" type="curve" smooth="yes"/>
      <point x="828" y="164"/>
      <point x="688" y="123"/>
      <point x="554" y="123" type="curve" smooth="yes"/>
      <point x="400.315" y="123"/>
      <point x="304.862" y="191.909"/>
      <point x="302.063" y="353.63" type="curve"/>
      <point x="853" y="411" type="line" smooth="yes"/>
      <point x="1015" y="428"/>
      <point x="1077" y="520"/>
      <point x="1077" y="655" type="curve" smooth="yes"/>
      <point x="1077" y="821"/>
      <point x="941" y="946"/>
      <point x="719" y="946" type="curve" smooth="yes"/>
    </contour>
    <contour>
      <point x="849" y="801"/>
      <point x="923" y="734"/>
      <point x="923" y="650" type="curve" smooth="yes"/>
      <point x="923" y="592"/>
      <point x="899" y="558"/>
      <point x="822" y="550" type="curve" smooth="yes"/>
      <point x="317.514" y="492.185" type="line"/>
      <point x="361.474" y="670.162"/>
      <point x="497.233" y="801"/>
      <point x="704" y="801" type="curve" smooth="yes"/>
    </contour>
  </outline>
</glyph>
<glyph name="IJ" format="1">
  <advance width="1228"/>
  <unicode hex="0132"/>
  <outline>
    <contour>
      <point x="1118" y="1197" type="line" smooth="yes"/>
      <point x="1065" y="1197"/>
      <point x="1041" y="1178"/>
      <point x="1033" y="1132" type="curve" smooth="yes"/>
      <point x="883" y="283" type="line" smooth="yes"/>
      <point x="863" y="170"/>
      <point x="816" y="126"/>
      <point x="734" y="126" type="curve" smooth="yes"/>
      <point x="674" y="126"/>
      <point x="607" y="142"/>
      <point x="557" y="167" type="curve" smooth="yes"/>
      <point x="531" y="180"/>
      <point x="500" y="178"/>
      <point x="477" y="125" type="curve" smooth="yes"/>
      <point x="454" y="73"/>
      <point x="464" y="47"/>
      <point x="498" y="28" type="curve" smooth="yes"/>
      <point x="560" y="-5"/>
      <point x="652" y="-22"/>
      <point x="721" y="-22" type="curve" smooth="yes"/>
      <point x="897" y="-22"/>
      <point x="996" y="74"/>
      <point x="1028" y="253" type="curve" smooth="yes"/>
      <point x="1183" y="1132" type="line" smooth="yes"/>
      <point x="1191" y="1178"/>
      <point x="1176" y="1197"/>
      <point x="1120" y="1197" type="curve" smooth="yes"/>
    </contour>
    <contour>
      <point x="393" y="1197" type="line" smooth="yes"/>
      <point x="340" y="1197"/>
      <point x="316" y="1178"/>
      <point x="308" y="1132" type="curve" smooth="yes"/>
      <point x="118" y="55" type="line" smooth="yes"/>
      <point x="110" y="9"/>
      <point x="125" y="-10"/>
      <point x="181" y="-10" type="curve" smooth="yes"/>
      <point x="183" y="-10" type="line" smooth="yes"/>
      <point x="236" y="-10"/>
      <point x="260" y="9"/>
      <point x="268" y="55" type="curve" smooth="yes"/>
      <point x="458" y="1132" type="line" smooth="yes"/>
      <point x="466" y="1178"/>
      <point x="451" y="1197"/>
      <point x="395" y="1197" type="curve" smooth="yes"/>
    </contour>
  </outline>
</glyph>
<glyph name="Eng" format="1">
  <advance width="1228"/>
  <unicode hex="014A"/>
  <outline>
    <contour>
      <point x="868" y="198" type="line"/>
      <point x="814" y="-107" type="line" smooth="yes"/>
      <point x="794" y="-220"/>
      <point x="740" y="-264"/>
      <point x="658" y="-264" type="curve" smooth="yes"/>
      <point x="598" y="-264"/>
      <point x="537" y="-246"/>
      <point x="488" y="-224" type="curve" smooth="yes"/>
      <point x="461" y="-212"/>
      <point x="427" y="-219"/>
      <point x="405" y="-266" type="curve" smooth="yes"/>
      <point x="381" y="-317"/>
      <point x="390" y="-343"/>
      <point x="425" y="-360" type="curve" smooth="yes"/>
      <point x="488" y="-390"/>
      <point x="567" y="-410"/>
      <point x="647" y="-410" type="curve" smooth="yes"/>
      <point x="823" y="-410"/>
      <point x="927" y="-314"/>
      <point x="959" y="-135" type="curve" smooth="yes"/>
      <point x="1018" y="198" type="line"/>
    </contour>
    <component base="N"/>
  </outline>
</glyph>
<glyph name="eng" format="1">
  <advance width="1228"/>
  <unicode hex="014B"/>
  <outline>
    <contour>
      <point x="667" y="946"/>
      <point x="507" y="850"/>
      <point x="398" y="716" type="curve"/>
      <point x="425" y="869" type="line" smooth="yes"/>
      <point x="433" y="915"/>
      <point x="418" y="934"/>
      <point x="365" y="934" type="curve" smooth="yes"/>
      <point x="363" y="934" type="line" smooth="yes"/>
      <point x="310" y="934"/>
      <point x="293" y="915"/>
      <point x="285" y="869" type="curve" smooth="yes"/>
      <point x="141" y="55" type="line" smooth="yes"/>
      <point x="133" y="9"/>
      <point x="148" y="-10"/>
      <point x="204" y="-10" type="curve" smooth="yes"/>
      <point x="206" y="-10" type="line" smooth="yes"/>
      <point x="259" y="-10"/>
      <point x="283" y="9"/>
      <point x="291" y="55" type="curve" smooth="yes"/>
      <point x="351" y="392" type="line" smooth="yes"/>
      <point x="391" y="620"/>
      <point x="611" y="798"/>
      <point x="782" y="798" type="curve" smooth="yes"/>
      <point x="887" y="798"/>
      <point x="935" y="744"/>
      <point x="935" y="659" type="curve" smooth="yes"/>
      <point x="935" y="642"/>
      <point x="933" y="624"/>
      <point x="930" y="605" type="curve" smooth="yes"/>
      <point x="804" y="-107" type="line" smooth="yes"/>
      <point x="784" y="-220"/>
      <point x="730" y="-264"/>
      <point x="648" y="-264" type="curve" smooth="yes"/>
      <point x="588" y="-264"/>
      <point x="527" y="-246"/>
      <point x="478" y="-224" type="curve" smooth="yes"/>
      <point x="451" y="-212"/>
      <point x="417" y="-219"/>
      <point x="395" y="-266" type="curve" smooth="yes"/>
      <point x="371" y="-317"/>
      <point x="380" y="-343"/>
      <point x="415" y="-360" type="curve" smooth="yes"/>
      <point x="478" y="-390"/>
      <point x="557" y="-410"/>
      <point x="637" y="-410" type="curve" smooth="yes"/>
      <point x="813" y="-410"/>
      <point x="917" y="-314"/>
      <point x="949" y="-135" type="curve" smooth="yes"/>
      <point x="1081" y="610" type="line" smooth="yes"/>
      <point x="1086" y="637"/>
      <point x="1088" y="662"/>
      <point x="1088" y="686" type="curve" smooth="yes"/>
      <point x="1088" y="844"/>
      <point x="985" y="946"/>
      <point x="813" y="946" type="curve" smooth="yes"/>
    </contour>
  </outline>
</glyph>
<glyph name="daggerdbl" format="1">
  <advance width="1228"/>
  <unicode hex="2021"/>
  <outline>
    <contour>
      <point x="703" y="1209"/>
      <point x="682" y="1191"/>
      <point x="674" y="1146" type="curve" smooth="yes"/>
      <point x="643" y="974" type="line"/>
      <point x="454" y="974" type="line" smooth="yes"/>
      <point x="409" y="974"/>
      <point x="388" y="954"/>
      <point x="379" y="902" type="curve" smooth="yes"/>
      <point x="369" y="850"/>
      <point x="384" y="830"/>
      <point x="429" y="830" type="curve" smooth="yes"/>
      <point x="618" y="830" type="line"/>
      <point x="577" y="600" type="line"/>
      <point x="388" y="600" type="line" smooth="yes"/>
      <point x="343" y="600"/>
      <point x="322" y="580"/>
      <point x="313" y="528" type="curve" smooth="yes"/>
      <point x="303" y="476"/>
      <point x="318" y="456"/>
      <point x="363" y="456" type="curve" smooth="yes"/>
      <point x="552" y="456" type="line"/>
      <point x="522" y="284" type="line" smooth="yes"/>
      <point x="514" y="239"/>
      <point x="532" y="221"/>
      <point x="584" y="221" type="curve" smooth="yes"/>
      <point x="636" y="221"/>
      <point x="658" y="239"/>
      <point x="666" y="284" type="curve" smooth="yes"/>
      <point x="696" y="456" type="line"/>
      <point x="885" y="456" type="line" smooth="yes"/>
      <point x="930" y="456"/>
      <point x="951" y="476"/>
      <point x="961" y="528" type="curve" smooth="yes"/>
      <point x="970" y="580"/>
      <point x="955" y="600"/>
      <point x="910" y="600" type="curve" smooth="yes"/>
      <point x="721" y="600" type="line"/>
      <point x="762" y="830" type="line"/>
      <point x="951" y="830" type="line" smooth="yes"/>
      <point x="996" y="830"/>
      <point x="1017" y="850"/>
      <point x="1027" y="902" type="curve" smooth="yes"/>
      <point x="1036" y="954"/>
      <point x="1021" y="974"/>
      <point x="976" y="974" type="curve" smooth="yes"/>
      <point x="787" y="974" type="line"/>
      <point x="818" y="1146" type="line" smooth="yes"/>
      <point x="826" y="1191"/>
      <point x="807" y="1209"/>
      <point x="755" y="1209" type="curve" smooth="yes"/>
    </contour>
  </outline>
</glyph>
<glyph name="franc" format="1">
  <advance width="1228"/>
  <unicode hex="20A3"/>
  <outline>
    <contour>
      <point x="445" y="1187" type="line" smooth="yes"/>
      <point x="400" y="1187"/>
      <point x="381" y="1169"/>
      <point x="372" y="1119" type="curve" smooth="yes"/>
      <point x="184" y="55" type="line" smooth="yes"/>
      <point x="176" y="9"/>
      <point x="191" y="-10"/>
      <point x="247" y="-10" type="curve" smooth="yes"/>
      <point x="249" y="-10" type="line" smooth="yes"/>
      <point x="302" y="-10"/>
      <point x="326" y="9"/>
      <point x="334" y="55" type="curve"/>
      <point x="508" y="1043" type="line"/>
      <point x="1090" y="1043" type="line" smooth="yes"/>
      <point x="1135" y="1043"/>
      <point x="1157" y="1063"/>
      <point x="1166" y="1115" type="curve" smooth="yes"/>
      <point x="1175" y="1167"/>
      <point x="1161" y="1187"/>
      <point x="1116" y="1187" type="curve" smooth="yes"/>
    </contour>
    <contour>
      <point x="109" y="374" type="line" smooth="yes"/>
      <point x="64" y="374"/>
      <point x="42" y="354"/>
      <point x="33" y="302" type="curve" smooth="yes"/>
      <point x="24" y="250"/>
      <point x="38" y="230"/>
      <point x="83" y="230" type="curve" smooth="yes"/>
      <point x="695" y="230" type="line" smooth="yes"/>
      <point x="740" y="230"/>
      <point x="762" y="250"/>
      <point x="771" y="302" type="curve" smooth="yes"/>
      <point x="780" y="354"/>
      <point x="766" y="374"/>
      <point x="721" y="374" type="curve" smooth="yes"/>
    </contour>
    <contour>
      <point x="403" y="704" type="line"/>
      <point x="378" y="560" type="line"/>
      <point x="891" y="560" type="line" smooth="yes"/>
      <point x="936" y="560"/>
      <point x="957" y="580"/>
      <point x="966" y="632" type="curve" smooth="yes"/>
      <point x="976" y="684"/>
      <point x="961" y="704"/>
      <point x="916" y="704" type="curve" smooth="yes"/>
    </contour>
  </outline>
</glyph>
<glyph name="Euro" format="1">
  <advance width="1228"/>
  <unicode hex="20AC"/>
  <outline>
    <contour>
      <point x="451" y="1209"/>
      <point x="220" y="840"/>
      <point x="220" y="453" type="curve" smooth="yes"/>
      <point x="220" y="166"/>
      <point x="367" y="-22"/>
      <point x="628" y="-22" type="curve" smooth="yes"/>
      <point x="765" y="-22"/>
      <point x="897" y="14"/>
      <point x="1021" y="86" type="curve" smooth="yes"/>
      <point x="1061" y="109"/>
      <point x="1066" y="141"/>
      <point x="1043" y="187" type="curve" smooth="yes"/>
      <point x="1019" y="234"/>
      <point x="985" y="242"/>
      <point x="954" y="222" type="curve" smooth="yes"/>
      <point x="861" y="161"/>
      <point x="749" y="126"/>
      <point x="639" y="126" type="curve" smooth="yes"/>
      <point x="466" y="126"/>
      <point x="374" y="251"/>
      <point x="374" y="461" type="curve" smooth="yes"/>
      <point x="374" y="755"/>
      <point x="536" y="1061"/>
      <point x="819" y="1061" type="curve" smooth="yes"/>
      <point x="913" y="1061"/>
      <point x="1013" y="1034"/>
      <point x="1092" y="980" type="curve" smooth="yes"/>
      <point x="1122" y="960"/>
      <point x="1157" y="968"/>
      <point x="1181" y="1015" type="curve" smooth="yes"/>
      <point x="1204" y="1061"/>
      <point x="1199" y="1093"/>
      <point x="1159" y="1116" type="curve" smooth="yes"/>
      <point x="1055" y="1179"/>
      <point x="944" y="1209"/>
      <point x="830" y="1209" type="curve" smooth="yes"/>
    </contour>
    <contour>
      <point x="143" y="514" type="line" smooth="yes"/>
      <point x="98" y="514"/>
      <point x="77" y="494"/>
      <point x="67" y="442" type="curve" smooth="yes"/>
      <point x="58" y="390"/>
      <point x="73" y="370"/>
      <point x="118" y="370" type="curve" smooth="yes"/>
      <point x="730" y="370" type="line" smooth="yes"/>
      <point x="775" y="370"/>
      <point x="796" y="390"/>
      <point x="805" y="442" type="curve" smooth="yes"/>
      <point x="815" y="494"/>
      <point x="800" y="514"/>
      <point x="755" y="514" type="curve" smooth="yes"/>
    </contour>
    <contour>
      <point x="198" y="824" type="line" smooth="yes"/>
      <point x="153" y="824"/>
      <point x="131" y="804"/>
      <point x="122" y="752" type="curve" smooth="yes"/>
      <point x="113" y="700"/>
      <point x="127" y="680"/>
      <point x="172" y="680" type="curve" smooth="yes"/>
      <point x="784" y="680" type="line" smooth="yes"/>
      <point x="829" y="680"/>
      <point x="851" y="700"/>
      <point x="860" y="752" type="curve" smooth="yes"/>
      <point x="869" y="804"/>
      <point x="855" y="824"/>
      <point x="810" y="824" type="curve" smooth="yes"/>
    </contour>
  </outline>
</glyph>
<glyph name="euro" format="1">
  <advance width="1228"/>
  <unicode hex="20AC"/>
  <outline>
    <contour>
      <point x="481" y="1209"/>
      <point x="250" y="840"/>
      <point x="250" y="453" type="curve" smooth="yes"/>
      <point x="250" y="166"/>
      <point x="397" y="-22"/>
      <point x="658" y="-22" type="curve" smooth="yes"/>
      <point x="795" y="-22"/>
      <point x="927" y="14"/>
      <point x="1051" y="86" type="curve" smooth="yes"/>
      <point x="1091" y="109"/>
      <point x="1096" y="141"/>
      <point x="1073" y="187" type="curve" smooth="yes"/>
      <point x="1049" y="234"/>
      <point x="1015" y="242"/>
      <point x="984" y="222" type="curve" smooth="yes"/>
      <point x="891" y="161"/>
      <point x="779" y="126"/>
      <point x="669" y="126" type="curve" smooth="yes"/>
      <point x="496" y="126"/>
      <point x="404" y="251"/>
      <point x="404" y="461" type="curve" smooth="yes"/>
      <point x="404" y="755"/>
      <point x="566" y="1061"/>
      <point x="849" y="1061" type="curve" smooth="yes"/>
      <point x="943" y="1061"/>
      <point x="1043" y="1034"/>
      <point x="1122" y="980" type="curve" smooth="yes"/>
      <point x="1152" y="960"/>
      <point x="1187" y="968"/>
      <point x="1211" y="1015" type="curve" smooth="yes"/>
      <point x="1234" y="1061"/>
      <point x="1229" y="1093"/>
      <point x="1189" y="1116" type="curve" smooth="yes"/>
      <point x="1085" y="1179"/>
      <point x="974" y="1209"/>
      <point x="860" y="1209" type="curve" smooth="yes"/>
    </contour>
    <contour>
      <point x="173" y="514" type="line" smooth="yes"/>
      <point x="128" y="514"/>
      <point x="107" y="494"/>
      <point x="97" y="442" type="curve" smooth="yes"/>
      <point x="88" y="390"/>
      <point x="103" y="370"/>
      <point x="148" y="370" type="curve" smooth="yes"/>
      <point x="760" y="370" type="line" smooth="yes"/>
      <point x="805" y="370"/>
      <point x="826" y="390"/>
      <point x="835" y="442" type="curve" smooth="yes"/>
      <point x="845" y="494"/>
      <point x="830" y="514"/>
      <point x="785" y="514" type="curve" smooth="yes"/>
    </contour>
    <contour>
      <point x="228" y="824" type="line" smooth="yes"/>
      <point x="183" y="824"/>
      <point x="161" y="804"/>
      <point x="152" y="752" type="curve" smooth="yes"/>
      <point x="143" y="700"/>
      <point x="157" y="680"/>
      <point x="202" y="680" type="curve" smooth="yes"/>
      <point x="814" y="680" type="line" smooth="yes"/>
      <point x="859" y="680"/>
      <point x="881" y="700"/>
      <point x="890" y="752" type="curve" smooth="yes"/>
      <point x="899" y="804"/>
      <point x="885" y="824"/>
      <point x="840" y="824" type="curve" smooth="yes"/>
    </contour>
  </outline>
</glyph>
<glyph name="greaterequal" format="1">
  <advance width="1228"/>
  <unicode hex="2265"/>
  <outline>
    <contour>
      <point x="346" y="1140"/>
      <point x="326" y="1128"/>
      <point x="305" y="1079" type="curve" smooth="yes"/>
      <point x="283" y="1028"/>
      <point x="288" y="1003"/>
      <point x="329" y="986" type="curve" smooth="yes"/>
      <point x="879" y="763" type="line"/>
      <point x="233" y="535" type="line" smooth="yes"/>
      <point x="187" y="519"/>
      <point x="169" y="485"/>
      <point x="187" y="434" type="curve" smooth="yes"/>
      <point x="204" y="385"/>
      <point x="227" y="376"/>
      <point x="272" y="392" type="curve" smooth="yes"/>
      <point x="1055" y="680" type="line" smooth="yes"/>
      <point x="1091" y="693"/>
      <point x="1114" y="715"/>
      <point x="1121" y="755" type="curve" smooth="yes"/>
      <point x="1128" y="795"/>
      <point x="1113" y="817"/>
      <point x="1082" y="830" type="curve" smooth="yes"/>
      <point x="385" y="1124" type="line" smooth="yes"/>
    </contour>
    <contour>
      <point x="208" y="254" type="line" smooth="yes"/>
      <point x="163" y="254"/>
      <point x="141" y="234"/>
      <point x="132" y="182" type="curve" smooth="yes"/>
      <point x="123" y="130"/>
      <point x="137" y="110"/>
      <point x="182" y="110" type="curve" smooth="yes"/>
      <point x="944" y="110" type="line" smooth="yes"/>
      <point x="989" y="110"/>
      <point x="1011" y="130"/>
      <point x="1020" y="182" type="curve" smooth="yes"/>
      <point x="1029" y="234"/>
      <point x="1015" y="254"/>
      <point x="970" y="254" type="curve" smooth="yes"/>
    </contour>
  </outline>
</glyph>
<glyph name="emdash.alt1" format="1">
  <advance width="1228"/>
  <outline>
    <contour>
      <point x="-321" y="654" type="line" smooth="yes"/>
      <point x="-366" y="654"/>
      <point x="-388" y="634"/>
      <point x="-397" y="582" type="curve" smooth="yes"/>
      <point x="-406" y="530"/>
      <point x="-392" y="510"/>
      <point x="-347" y="510" type="curve" smooth="yes"/>
      <point x="1614" y="510" type="line" smooth="yes"/>
      <point x="1659" y="510"/>
      <point x="1681" y="530"/>
      <point x="1690" y="582" type="curve" smooth="yes"/>
      <point x="1699" y="634"/>
      <point x="1685" y="654"/>
      <point x="1640" y="654" type="curve" smooth="yes"/>
    </contour>
  </outline>
</glyph>
